%TF.GenerationSoftware,KiCad,Pcbnew,9.0.6*%
%TF.CreationDate,2026-05-04T21:52:56+02:00*%
%TF.ProjectId,DC_DC_5V_Buck_Converter,44435f44-435f-4355-965f-4275636b5f43,rev?*%
%TF.SameCoordinates,PX572a740PY6dc4960*%
%TF.FileFunction,Legend,Top*%
%TF.FilePolarity,Positive*%
%FSLAX46Y46*%
G04 Gerber Fmt 4.6, Leading zero omitted, Abs format (unit mm)*
G04 Created by KiCad (PCBNEW 9.0.6) date 2026-05-04 21:52:56*
%MOMM*%
%LPD*%
G01*
G04 APERTURE LIST*
%ADD10C,0.080000*%
%ADD11C,0.200000*%
%ADD12C,0.150000*%
%ADD13C,0.120000*%
G04 APERTURE END LIST*
D10*
X1187107Y15096065D02*
X1187107Y15896065D01*
X1568059Y15096065D02*
X1568059Y15896065D01*
X1568059Y15896065D02*
X2025202Y15096065D01*
X2025202Y15096065D02*
X2025202Y15896065D01*
D11*
X10374435Y28906210D02*
X9612530Y28906210D01*
X9612530Y28906210D02*
X9536339Y28144305D01*
X9536339Y28144305D02*
X9612530Y28220496D01*
X9612530Y28220496D02*
X9764911Y28296686D01*
X9764911Y28296686D02*
X10145863Y28296686D01*
X10145863Y28296686D02*
X10298244Y28220496D01*
X10298244Y28220496D02*
X10374435Y28144305D01*
X10374435Y28144305D02*
X10450625Y27991924D01*
X10450625Y27991924D02*
X10450625Y27610972D01*
X10450625Y27610972D02*
X10374435Y27458591D01*
X10374435Y27458591D02*
X10298244Y27382400D01*
X10298244Y27382400D02*
X10145863Y27306210D01*
X10145863Y27306210D02*
X9764911Y27306210D01*
X9764911Y27306210D02*
X9612530Y27382400D01*
X9612530Y27382400D02*
X9536339Y27458591D01*
X10907768Y28906210D02*
X11441102Y27306210D01*
X11441102Y27306210D02*
X11974435Y28906210D01*
X14260150Y28144305D02*
X14488722Y28068115D01*
X14488722Y28068115D02*
X14564912Y27991924D01*
X14564912Y27991924D02*
X14641103Y27839543D01*
X14641103Y27839543D02*
X14641103Y27610972D01*
X14641103Y27610972D02*
X14564912Y27458591D01*
X14564912Y27458591D02*
X14488722Y27382400D01*
X14488722Y27382400D02*
X14336341Y27306210D01*
X14336341Y27306210D02*
X13726817Y27306210D01*
X13726817Y27306210D02*
X13726817Y28906210D01*
X13726817Y28906210D02*
X14260150Y28906210D01*
X14260150Y28906210D02*
X14412531Y28830020D01*
X14412531Y28830020D02*
X14488722Y28753829D01*
X14488722Y28753829D02*
X14564912Y28601448D01*
X14564912Y28601448D02*
X14564912Y28449067D01*
X14564912Y28449067D02*
X14488722Y28296686D01*
X14488722Y28296686D02*
X14412531Y28220496D01*
X14412531Y28220496D02*
X14260150Y28144305D01*
X14260150Y28144305D02*
X13726817Y28144305D01*
X16012531Y28372877D02*
X16012531Y27306210D01*
X15326817Y28372877D02*
X15326817Y27534781D01*
X15326817Y27534781D02*
X15403007Y27382400D01*
X15403007Y27382400D02*
X15555388Y27306210D01*
X15555388Y27306210D02*
X15783960Y27306210D01*
X15783960Y27306210D02*
X15936341Y27382400D01*
X15936341Y27382400D02*
X16012531Y27458591D01*
X17460150Y27382400D02*
X17307769Y27306210D01*
X17307769Y27306210D02*
X17003007Y27306210D01*
X17003007Y27306210D02*
X16850626Y27382400D01*
X16850626Y27382400D02*
X16774436Y27458591D01*
X16774436Y27458591D02*
X16698245Y27610972D01*
X16698245Y27610972D02*
X16698245Y28068115D01*
X16698245Y28068115D02*
X16774436Y28220496D01*
X16774436Y28220496D02*
X16850626Y28296686D01*
X16850626Y28296686D02*
X17003007Y28372877D01*
X17003007Y28372877D02*
X17307769Y28372877D01*
X17307769Y28372877D02*
X17460150Y28296686D01*
X18145865Y27306210D02*
X18145865Y28906210D01*
X18298246Y27915734D02*
X18755389Y27306210D01*
X18755389Y28372877D02*
X18145865Y27763353D01*
X21574437Y27458591D02*
X21498246Y27382400D01*
X21498246Y27382400D02*
X21269675Y27306210D01*
X21269675Y27306210D02*
X21117294Y27306210D01*
X21117294Y27306210D02*
X20888722Y27382400D01*
X20888722Y27382400D02*
X20736341Y27534781D01*
X20736341Y27534781D02*
X20660151Y27687162D01*
X20660151Y27687162D02*
X20583960Y27991924D01*
X20583960Y27991924D02*
X20583960Y28220496D01*
X20583960Y28220496D02*
X20660151Y28525258D01*
X20660151Y28525258D02*
X20736341Y28677639D01*
X20736341Y28677639D02*
X20888722Y28830020D01*
X20888722Y28830020D02*
X21117294Y28906210D01*
X21117294Y28906210D02*
X21269675Y28906210D01*
X21269675Y28906210D02*
X21498246Y28830020D01*
X21498246Y28830020D02*
X21574437Y28753829D01*
X22488722Y27306210D02*
X22336341Y27382400D01*
X22336341Y27382400D02*
X22260151Y27458591D01*
X22260151Y27458591D02*
X22183960Y27610972D01*
X22183960Y27610972D02*
X22183960Y28068115D01*
X22183960Y28068115D02*
X22260151Y28220496D01*
X22260151Y28220496D02*
X22336341Y28296686D01*
X22336341Y28296686D02*
X22488722Y28372877D01*
X22488722Y28372877D02*
X22717294Y28372877D01*
X22717294Y28372877D02*
X22869675Y28296686D01*
X22869675Y28296686D02*
X22945865Y28220496D01*
X22945865Y28220496D02*
X23022056Y28068115D01*
X23022056Y28068115D02*
X23022056Y27610972D01*
X23022056Y27610972D02*
X22945865Y27458591D01*
X22945865Y27458591D02*
X22869675Y27382400D01*
X22869675Y27382400D02*
X22717294Y27306210D01*
X22717294Y27306210D02*
X22488722Y27306210D01*
X23707770Y28372877D02*
X23707770Y27306210D01*
X23707770Y28220496D02*
X23783960Y28296686D01*
X23783960Y28296686D02*
X23936341Y28372877D01*
X23936341Y28372877D02*
X24164913Y28372877D01*
X24164913Y28372877D02*
X24317294Y28296686D01*
X24317294Y28296686D02*
X24393484Y28144305D01*
X24393484Y28144305D02*
X24393484Y27306210D01*
X25003008Y28372877D02*
X25383960Y27306210D01*
X25383960Y27306210D02*
X25764913Y28372877D01*
X26983961Y27382400D02*
X26831580Y27306210D01*
X26831580Y27306210D02*
X26526818Y27306210D01*
X26526818Y27306210D02*
X26374437Y27382400D01*
X26374437Y27382400D02*
X26298246Y27534781D01*
X26298246Y27534781D02*
X26298246Y28144305D01*
X26298246Y28144305D02*
X26374437Y28296686D01*
X26374437Y28296686D02*
X26526818Y28372877D01*
X26526818Y28372877D02*
X26831580Y28372877D01*
X26831580Y28372877D02*
X26983961Y28296686D01*
X26983961Y28296686D02*
X27060151Y28144305D01*
X27060151Y28144305D02*
X27060151Y27991924D01*
X27060151Y27991924D02*
X26298246Y27839543D01*
X27745866Y27306210D02*
X27745866Y28372877D01*
X27745866Y28068115D02*
X27822056Y28220496D01*
X27822056Y28220496D02*
X27898247Y28296686D01*
X27898247Y28296686D02*
X28050628Y28372877D01*
X28050628Y28372877D02*
X28203009Y28372877D01*
X28507770Y28372877D02*
X29117294Y28372877D01*
X28736342Y28906210D02*
X28736342Y27534781D01*
X28736342Y27534781D02*
X28812532Y27382400D01*
X28812532Y27382400D02*
X28964913Y27306210D01*
X28964913Y27306210D02*
X29117294Y27306210D01*
X30260152Y27382400D02*
X30107771Y27306210D01*
X30107771Y27306210D02*
X29803009Y27306210D01*
X29803009Y27306210D02*
X29650628Y27382400D01*
X29650628Y27382400D02*
X29574437Y27534781D01*
X29574437Y27534781D02*
X29574437Y28144305D01*
X29574437Y28144305D02*
X29650628Y28296686D01*
X29650628Y28296686D02*
X29803009Y28372877D01*
X29803009Y28372877D02*
X30107771Y28372877D01*
X30107771Y28372877D02*
X30260152Y28296686D01*
X30260152Y28296686D02*
X30336342Y28144305D01*
X30336342Y28144305D02*
X30336342Y27991924D01*
X30336342Y27991924D02*
X29574437Y27839543D01*
X31022057Y27306210D02*
X31022057Y28372877D01*
X31022057Y28068115D02*
X31098247Y28220496D01*
X31098247Y28220496D02*
X31174438Y28296686D01*
X31174438Y28296686D02*
X31326819Y28372877D01*
X31326819Y28372877D02*
X31479200Y28372877D01*
X33231581Y27915734D02*
X34450629Y27915734D01*
X37193486Y27306210D02*
X36431581Y27306210D01*
X36431581Y27306210D02*
X36431581Y28906210D01*
X37726819Y27306210D02*
X37726819Y28906210D01*
X37726819Y28906210D02*
X38260152Y27763353D01*
X38260152Y27763353D02*
X38793486Y28906210D01*
X38793486Y28906210D02*
X38793486Y27306210D01*
X39479199Y28753829D02*
X39555390Y28830020D01*
X39555390Y28830020D02*
X39707771Y28906210D01*
X39707771Y28906210D02*
X40088723Y28906210D01*
X40088723Y28906210D02*
X40241104Y28830020D01*
X40241104Y28830020D02*
X40317295Y28753829D01*
X40317295Y28753829D02*
X40393485Y28601448D01*
X40393485Y28601448D02*
X40393485Y28449067D01*
X40393485Y28449067D02*
X40317295Y28220496D01*
X40317295Y28220496D02*
X39403009Y27306210D01*
X39403009Y27306210D02*
X40393485Y27306210D01*
X41841105Y28906210D02*
X41079200Y28906210D01*
X41079200Y28906210D02*
X41003009Y28144305D01*
X41003009Y28144305D02*
X41079200Y28220496D01*
X41079200Y28220496D02*
X41231581Y28296686D01*
X41231581Y28296686D02*
X41612533Y28296686D01*
X41612533Y28296686D02*
X41764914Y28220496D01*
X41764914Y28220496D02*
X41841105Y28144305D01*
X41841105Y28144305D02*
X41917295Y27991924D01*
X41917295Y27991924D02*
X41917295Y27610972D01*
X41917295Y27610972D02*
X41841105Y27458591D01*
X41841105Y27458591D02*
X41764914Y27382400D01*
X41764914Y27382400D02*
X41612533Y27306210D01*
X41612533Y27306210D02*
X41231581Y27306210D01*
X41231581Y27306210D02*
X41079200Y27382400D01*
X41079200Y27382400D02*
X41003009Y27458591D01*
X42679200Y27306210D02*
X42983962Y27306210D01*
X42983962Y27306210D02*
X43136343Y27382400D01*
X43136343Y27382400D02*
X43212534Y27458591D01*
X43212534Y27458591D02*
X43364915Y27687162D01*
X43364915Y27687162D02*
X43441105Y27991924D01*
X43441105Y27991924D02*
X43441105Y28601448D01*
X43441105Y28601448D02*
X43364915Y28753829D01*
X43364915Y28753829D02*
X43288724Y28830020D01*
X43288724Y28830020D02*
X43136343Y28906210D01*
X43136343Y28906210D02*
X42831581Y28906210D01*
X42831581Y28906210D02*
X42679200Y28830020D01*
X42679200Y28830020D02*
X42603010Y28753829D01*
X42603010Y28753829D02*
X42526819Y28601448D01*
X42526819Y28601448D02*
X42526819Y28220496D01*
X42526819Y28220496D02*
X42603010Y28068115D01*
X42603010Y28068115D02*
X42679200Y27991924D01*
X42679200Y27991924D02*
X42831581Y27915734D01*
X42831581Y27915734D02*
X43136343Y27915734D01*
X43136343Y27915734D02*
X43288724Y27991924D01*
X43288724Y27991924D02*
X43364915Y28068115D01*
X43364915Y28068115D02*
X43441105Y28220496D01*
X44812534Y28906210D02*
X44507772Y28906210D01*
X44507772Y28906210D02*
X44355391Y28830020D01*
X44355391Y28830020D02*
X44279201Y28753829D01*
X44279201Y28753829D02*
X44126820Y28525258D01*
X44126820Y28525258D02*
X44050629Y28220496D01*
X44050629Y28220496D02*
X44050629Y27610972D01*
X44050629Y27610972D02*
X44126820Y27458591D01*
X44126820Y27458591D02*
X44203010Y27382400D01*
X44203010Y27382400D02*
X44355391Y27306210D01*
X44355391Y27306210D02*
X44660153Y27306210D01*
X44660153Y27306210D02*
X44812534Y27382400D01*
X44812534Y27382400D02*
X44888725Y27458591D01*
X44888725Y27458591D02*
X44964915Y27610972D01*
X44964915Y27610972D02*
X44964915Y27991924D01*
X44964915Y27991924D02*
X44888725Y28144305D01*
X44888725Y28144305D02*
X44812534Y28220496D01*
X44812534Y28220496D02*
X44660153Y28296686D01*
X44660153Y28296686D02*
X44355391Y28296686D01*
X44355391Y28296686D02*
X44203010Y28220496D01*
X44203010Y28220496D02*
X44126820Y28144305D01*
X44126820Y28144305D02*
X44050629Y27991924D01*
X45574439Y27382400D02*
X45803011Y27306210D01*
X45803011Y27306210D02*
X46183963Y27306210D01*
X46183963Y27306210D02*
X46336344Y27382400D01*
X46336344Y27382400D02*
X46412535Y27458591D01*
X46412535Y27458591D02*
X46488725Y27610972D01*
X46488725Y27610972D02*
X46488725Y27763353D01*
X46488725Y27763353D02*
X46412535Y27915734D01*
X46412535Y27915734D02*
X46336344Y27991924D01*
X46336344Y27991924D02*
X46183963Y28068115D01*
X46183963Y28068115D02*
X45879201Y28144305D01*
X45879201Y28144305D02*
X45726820Y28220496D01*
X45726820Y28220496D02*
X45650630Y28296686D01*
X45650630Y28296686D02*
X45574439Y28449067D01*
X45574439Y28449067D02*
X45574439Y28601448D01*
X45574439Y28601448D02*
X45650630Y28753829D01*
X45650630Y28753829D02*
X45726820Y28830020D01*
X45726820Y28830020D02*
X45879201Y28906210D01*
X45879201Y28906210D02*
X46260154Y28906210D01*
X46260154Y28906210D02*
X46488725Y28830020D01*
X47174440Y27915734D02*
X48393488Y27915734D01*
X49917297Y28906210D02*
X49155392Y28906210D01*
X49155392Y28906210D02*
X49079201Y28144305D01*
X49079201Y28144305D02*
X49155392Y28220496D01*
X49155392Y28220496D02*
X49307773Y28296686D01*
X49307773Y28296686D02*
X49688725Y28296686D01*
X49688725Y28296686D02*
X49841106Y28220496D01*
X49841106Y28220496D02*
X49917297Y28144305D01*
X49917297Y28144305D02*
X49993487Y27991924D01*
X49993487Y27991924D02*
X49993487Y27610972D01*
X49993487Y27610972D02*
X49917297Y27458591D01*
X49917297Y27458591D02*
X49841106Y27382400D01*
X49841106Y27382400D02*
X49688725Y27306210D01*
X49688725Y27306210D02*
X49307773Y27306210D01*
X49307773Y27306210D02*
X49155392Y27382400D01*
X49155392Y27382400D02*
X49079201Y27458591D01*
D10*
X93808154Y20937970D02*
X93731964Y20976065D01*
X93731964Y20976065D02*
X93617678Y20976065D01*
X93617678Y20976065D02*
X93503392Y20937970D01*
X93503392Y20937970D02*
X93427202Y20861780D01*
X93427202Y20861780D02*
X93389107Y20785589D01*
X93389107Y20785589D02*
X93351011Y20633208D01*
X93351011Y20633208D02*
X93351011Y20518922D01*
X93351011Y20518922D02*
X93389107Y20366541D01*
X93389107Y20366541D02*
X93427202Y20290351D01*
X93427202Y20290351D02*
X93503392Y20214160D01*
X93503392Y20214160D02*
X93617678Y20176065D01*
X93617678Y20176065D02*
X93693869Y20176065D01*
X93693869Y20176065D02*
X93808154Y20214160D01*
X93808154Y20214160D02*
X93846250Y20252256D01*
X93846250Y20252256D02*
X93846250Y20518922D01*
X93846250Y20518922D02*
X93693869Y20518922D01*
X94189107Y20176065D02*
X94189107Y20976065D01*
X94189107Y20976065D02*
X94646250Y20176065D01*
X94646250Y20176065D02*
X94646250Y20976065D01*
X95027202Y20176065D02*
X95027202Y20976065D01*
X95027202Y20976065D02*
X95217678Y20976065D01*
X95217678Y20976065D02*
X95331964Y20937970D01*
X95331964Y20937970D02*
X95408154Y20861780D01*
X95408154Y20861780D02*
X95446249Y20785589D01*
X95446249Y20785589D02*
X95484345Y20633208D01*
X95484345Y20633208D02*
X95484345Y20518922D01*
X95484345Y20518922D02*
X95446249Y20366541D01*
X95446249Y20366541D02*
X95408154Y20290351D01*
X95408154Y20290351D02*
X95331964Y20214160D01*
X95331964Y20214160D02*
X95217678Y20176065D01*
X95217678Y20176065D02*
X95027202Y20176065D01*
D11*
X78088720Y27793972D02*
X78088720Y29293972D01*
X78088720Y29293972D02*
X78945863Y27793972D01*
X78945863Y27793972D02*
X78945863Y29293972D01*
X80303007Y27793972D02*
X80303007Y28579686D01*
X80303007Y28579686D02*
X80231578Y28722543D01*
X80231578Y28722543D02*
X80088721Y28793972D01*
X80088721Y28793972D02*
X79803007Y28793972D01*
X79803007Y28793972D02*
X79660149Y28722543D01*
X80303007Y27865400D02*
X80160149Y27793972D01*
X80160149Y27793972D02*
X79803007Y27793972D01*
X79803007Y27793972D02*
X79660149Y27865400D01*
X79660149Y27865400D02*
X79588721Y28008258D01*
X79588721Y28008258D02*
X79588721Y28151115D01*
X79588721Y28151115D02*
X79660149Y28293972D01*
X79660149Y28293972D02*
X79803007Y28365400D01*
X79803007Y28365400D02*
X80160149Y28365400D01*
X80160149Y28365400D02*
X80303007Y28436829D01*
X80945864Y27865400D02*
X81088721Y27793972D01*
X81088721Y27793972D02*
X81374435Y27793972D01*
X81374435Y27793972D02*
X81517292Y27865400D01*
X81517292Y27865400D02*
X81588721Y28008258D01*
X81588721Y28008258D02*
X81588721Y28079686D01*
X81588721Y28079686D02*
X81517292Y28222543D01*
X81517292Y28222543D02*
X81374435Y28293972D01*
X81374435Y28293972D02*
X81160150Y28293972D01*
X81160150Y28293972D02*
X81017292Y28365400D01*
X81017292Y28365400D02*
X80945864Y28508258D01*
X80945864Y28508258D02*
X80945864Y28579686D01*
X80945864Y28579686D02*
X81017292Y28722543D01*
X81017292Y28722543D02*
X81160150Y28793972D01*
X81160150Y28793972D02*
X81374435Y28793972D01*
X81374435Y28793972D02*
X81517292Y28722543D01*
X82160150Y27865400D02*
X82303007Y27793972D01*
X82303007Y27793972D02*
X82588721Y27793972D01*
X82588721Y27793972D02*
X82731578Y27865400D01*
X82731578Y27865400D02*
X82803007Y28008258D01*
X82803007Y28008258D02*
X82803007Y28079686D01*
X82803007Y28079686D02*
X82731578Y28222543D01*
X82731578Y28222543D02*
X82588721Y28293972D01*
X82588721Y28293972D02*
X82374436Y28293972D01*
X82374436Y28293972D02*
X82231578Y28365400D01*
X82231578Y28365400D02*
X82160150Y28508258D01*
X82160150Y28508258D02*
X82160150Y28579686D01*
X82160150Y28579686D02*
X82231578Y28722543D01*
X82231578Y28722543D02*
X82374436Y28793972D01*
X82374436Y28793972D02*
X82588721Y28793972D01*
X82588721Y28793972D02*
X82731578Y28722543D01*
X84017293Y27865400D02*
X83874436Y27793972D01*
X83874436Y27793972D02*
X83588722Y27793972D01*
X83588722Y27793972D02*
X83445864Y27865400D01*
X83445864Y27865400D02*
X83374436Y28008258D01*
X83374436Y28008258D02*
X83374436Y28579686D01*
X83374436Y28579686D02*
X83445864Y28722543D01*
X83445864Y28722543D02*
X83588722Y28793972D01*
X83588722Y28793972D02*
X83874436Y28793972D01*
X83874436Y28793972D02*
X84017293Y28722543D01*
X84017293Y28722543D02*
X84088722Y28579686D01*
X84088722Y28579686D02*
X84088722Y28436829D01*
X84088722Y28436829D02*
X83374436Y28293972D01*
X84731578Y27793972D02*
X84731578Y28793972D01*
X84731578Y28508258D02*
X84803007Y28651115D01*
X84803007Y28651115D02*
X84874436Y28722543D01*
X84874436Y28722543D02*
X85017293Y28793972D01*
X85017293Y28793972D02*
X85160150Y28793972D01*
X86588721Y29293972D02*
X87445864Y29293972D01*
X87017292Y27793972D02*
X87017292Y29293972D01*
X88588721Y27793972D02*
X88588721Y28579686D01*
X88588721Y28579686D02*
X88517292Y28722543D01*
X88517292Y28722543D02*
X88374435Y28793972D01*
X88374435Y28793972D02*
X88088721Y28793972D01*
X88088721Y28793972D02*
X87945863Y28722543D01*
X88588721Y27865400D02*
X88445863Y27793972D01*
X88445863Y27793972D02*
X88088721Y27793972D01*
X88088721Y27793972D02*
X87945863Y27865400D01*
X87945863Y27865400D02*
X87874435Y28008258D01*
X87874435Y28008258D02*
X87874435Y28151115D01*
X87874435Y28151115D02*
X87945863Y28293972D01*
X87945863Y28293972D02*
X88088721Y28365400D01*
X88088721Y28365400D02*
X88445863Y28365400D01*
X88445863Y28365400D02*
X88588721Y28436829D01*
X89945864Y28793972D02*
X89945864Y27293972D01*
X89945864Y27865400D02*
X89803006Y27793972D01*
X89803006Y27793972D02*
X89517292Y27793972D01*
X89517292Y27793972D02*
X89374435Y27865400D01*
X89374435Y27865400D02*
X89303006Y27936829D01*
X89303006Y27936829D02*
X89231578Y28079686D01*
X89231578Y28079686D02*
X89231578Y28508258D01*
X89231578Y28508258D02*
X89303006Y28651115D01*
X89303006Y28651115D02*
X89374435Y28722543D01*
X89374435Y28722543D02*
X89517292Y28793972D01*
X89517292Y28793972D02*
X89803006Y28793972D01*
X89803006Y28793972D02*
X89945864Y28722543D01*
X90660149Y27793972D02*
X90660149Y28793972D01*
X90660149Y29293972D02*
X90588721Y29222543D01*
X90588721Y29222543D02*
X90660149Y29151115D01*
X90660149Y29151115D02*
X90731578Y29222543D01*
X90731578Y29222543D02*
X90660149Y29293972D01*
X90660149Y29293972D02*
X90660149Y29151115D01*
D10*
X1352154Y21191970D02*
X1275964Y21230065D01*
X1275964Y21230065D02*
X1161678Y21230065D01*
X1161678Y21230065D02*
X1047392Y21191970D01*
X1047392Y21191970D02*
X971202Y21115780D01*
X971202Y21115780D02*
X933107Y21039589D01*
X933107Y21039589D02*
X895011Y20887208D01*
X895011Y20887208D02*
X895011Y20772922D01*
X895011Y20772922D02*
X933107Y20620541D01*
X933107Y20620541D02*
X971202Y20544351D01*
X971202Y20544351D02*
X1047392Y20468160D01*
X1047392Y20468160D02*
X1161678Y20430065D01*
X1161678Y20430065D02*
X1237869Y20430065D01*
X1237869Y20430065D02*
X1352154Y20468160D01*
X1352154Y20468160D02*
X1390250Y20506256D01*
X1390250Y20506256D02*
X1390250Y20772922D01*
X1390250Y20772922D02*
X1237869Y20772922D01*
X1733107Y20430065D02*
X1733107Y21230065D01*
X1733107Y21230065D02*
X2190250Y20430065D01*
X2190250Y20430065D02*
X2190250Y21230065D01*
X2571202Y20430065D02*
X2571202Y21230065D01*
X2571202Y21230065D02*
X2761678Y21230065D01*
X2761678Y21230065D02*
X2875964Y21191970D01*
X2875964Y21191970D02*
X2952154Y21115780D01*
X2952154Y21115780D02*
X2990249Y21039589D01*
X2990249Y21039589D02*
X3028345Y20887208D01*
X3028345Y20887208D02*
X3028345Y20772922D01*
X3028345Y20772922D02*
X2990249Y20620541D01*
X2990249Y20620541D02*
X2952154Y20544351D01*
X2952154Y20544351D02*
X2875964Y20468160D01*
X2875964Y20468160D02*
X2761678Y20430065D01*
X2761678Y20430065D02*
X2571202Y20430065D01*
X93541488Y15642065D02*
X93693869Y15642065D01*
X93693869Y15642065D02*
X93770059Y15603970D01*
X93770059Y15603970D02*
X93846250Y15527780D01*
X93846250Y15527780D02*
X93884345Y15375399D01*
X93884345Y15375399D02*
X93884345Y15108732D01*
X93884345Y15108732D02*
X93846250Y14956351D01*
X93846250Y14956351D02*
X93770059Y14880160D01*
X93770059Y14880160D02*
X93693869Y14842065D01*
X93693869Y14842065D02*
X93541488Y14842065D01*
X93541488Y14842065D02*
X93465297Y14880160D01*
X93465297Y14880160D02*
X93389107Y14956351D01*
X93389107Y14956351D02*
X93351011Y15108732D01*
X93351011Y15108732D02*
X93351011Y15375399D01*
X93351011Y15375399D02*
X93389107Y15527780D01*
X93389107Y15527780D02*
X93465297Y15603970D01*
X93465297Y15603970D02*
X93541488Y15642065D01*
X94227202Y15642065D02*
X94227202Y14994446D01*
X94227202Y14994446D02*
X94265297Y14918256D01*
X94265297Y14918256D02*
X94303392Y14880160D01*
X94303392Y14880160D02*
X94379583Y14842065D01*
X94379583Y14842065D02*
X94531964Y14842065D01*
X94531964Y14842065D02*
X94608154Y14880160D01*
X94608154Y14880160D02*
X94646249Y14918256D01*
X94646249Y14918256D02*
X94684345Y14994446D01*
X94684345Y14994446D02*
X94684345Y15642065D01*
X94951011Y15642065D02*
X95408154Y15642065D01*
X95179582Y14842065D02*
X95179582Y15642065D01*
D11*
X8088720Y9708888D02*
X8088720Y11208888D01*
X8803006Y10708888D02*
X8803006Y9708888D01*
X8803006Y10566031D02*
X8874435Y10637459D01*
X8874435Y10637459D02*
X9017292Y10708888D01*
X9017292Y10708888D02*
X9231578Y10708888D01*
X9231578Y10708888D02*
X9374435Y10637459D01*
X9374435Y10637459D02*
X9445864Y10494602D01*
X9445864Y10494602D02*
X9445864Y9708888D01*
X10160149Y10708888D02*
X10160149Y9208888D01*
X10160149Y10637459D02*
X10303007Y10708888D01*
X10303007Y10708888D02*
X10588721Y10708888D01*
X10588721Y10708888D02*
X10731578Y10637459D01*
X10731578Y10637459D02*
X10803007Y10566031D01*
X10803007Y10566031D02*
X10874435Y10423174D01*
X10874435Y10423174D02*
X10874435Y9994602D01*
X10874435Y9994602D02*
X10803007Y9851745D01*
X10803007Y9851745D02*
X10731578Y9780316D01*
X10731578Y9780316D02*
X10588721Y9708888D01*
X10588721Y9708888D02*
X10303007Y9708888D01*
X10303007Y9708888D02*
X10160149Y9780316D01*
X12160150Y10708888D02*
X12160150Y9708888D01*
X11517292Y10708888D02*
X11517292Y9923174D01*
X11517292Y9923174D02*
X11588721Y9780316D01*
X11588721Y9780316D02*
X11731578Y9708888D01*
X11731578Y9708888D02*
X11945864Y9708888D01*
X11945864Y9708888D02*
X12088721Y9780316D01*
X12088721Y9780316D02*
X12160150Y9851745D01*
X12660150Y10708888D02*
X13231578Y10708888D01*
X12874435Y11208888D02*
X12874435Y9923174D01*
X12874435Y9923174D02*
X12945864Y9780316D01*
X12945864Y9780316D02*
X13088721Y9708888D01*
X13088721Y9708888D02*
X13231578Y9708888D01*
X13731578Y9851745D02*
X13803007Y9780316D01*
X13803007Y9780316D02*
X13731578Y9708888D01*
X13731578Y9708888D02*
X13660150Y9780316D01*
X13660150Y9780316D02*
X13731578Y9851745D01*
X13731578Y9851745D02*
X13731578Y9708888D01*
X13731578Y10637459D02*
X13803007Y10566031D01*
X13803007Y10566031D02*
X13731578Y10494602D01*
X13731578Y10494602D02*
X13660150Y10566031D01*
X13660150Y10566031D02*
X13731578Y10637459D01*
X13731578Y10637459D02*
X13731578Y10494602D01*
X15445864Y11208888D02*
X16445864Y11208888D01*
X16445864Y11208888D02*
X15803007Y9708888D01*
X16803007Y11208888D02*
X17303007Y9708888D01*
X17303007Y9708888D02*
X17803007Y11208888D01*
X18303006Y10280316D02*
X19445864Y10280316D01*
X20803007Y10708888D02*
X20803007Y9708888D01*
X20445864Y11280316D02*
X20088721Y10208888D01*
X20088721Y10208888D02*
X21017292Y10208888D01*
X21874435Y11208888D02*
X22017292Y11208888D01*
X22017292Y11208888D02*
X22160149Y11137459D01*
X22160149Y11137459D02*
X22231578Y11066031D01*
X22231578Y11066031D02*
X22303006Y10923174D01*
X22303006Y10923174D02*
X22374435Y10637459D01*
X22374435Y10637459D02*
X22374435Y10280316D01*
X22374435Y10280316D02*
X22303006Y9994602D01*
X22303006Y9994602D02*
X22231578Y9851745D01*
X22231578Y9851745D02*
X22160149Y9780316D01*
X22160149Y9780316D02*
X22017292Y9708888D01*
X22017292Y9708888D02*
X21874435Y9708888D01*
X21874435Y9708888D02*
X21731578Y9780316D01*
X21731578Y9780316D02*
X21660149Y9851745D01*
X21660149Y9851745D02*
X21588720Y9994602D01*
X21588720Y9994602D02*
X21517292Y10280316D01*
X21517292Y10280316D02*
X21517292Y10637459D01*
X21517292Y10637459D02*
X21588720Y10923174D01*
X21588720Y10923174D02*
X21660149Y11066031D01*
X21660149Y11066031D02*
X21731578Y11137459D01*
X21731578Y11137459D02*
X21874435Y11208888D01*
X22803006Y11208888D02*
X23303006Y9708888D01*
X23303006Y9708888D02*
X23803006Y11208888D01*
X8374435Y8793972D02*
X8660149Y8793972D01*
X8660149Y8793972D02*
X8803006Y8722543D01*
X8803006Y8722543D02*
X8945863Y8579686D01*
X8945863Y8579686D02*
X9017292Y8293972D01*
X9017292Y8293972D02*
X9017292Y7793972D01*
X9017292Y7793972D02*
X8945863Y7508258D01*
X8945863Y7508258D02*
X8803006Y7365400D01*
X8803006Y7365400D02*
X8660149Y7293972D01*
X8660149Y7293972D02*
X8374435Y7293972D01*
X8374435Y7293972D02*
X8231578Y7365400D01*
X8231578Y7365400D02*
X8088720Y7508258D01*
X8088720Y7508258D02*
X8017292Y7793972D01*
X8017292Y7793972D02*
X8017292Y8293972D01*
X8017292Y8293972D02*
X8088720Y8579686D01*
X8088720Y8579686D02*
X8231578Y8722543D01*
X8231578Y8722543D02*
X8374435Y8793972D01*
X10303007Y8293972D02*
X10303007Y7293972D01*
X9660149Y8293972D02*
X9660149Y7508258D01*
X9660149Y7508258D02*
X9731578Y7365400D01*
X9731578Y7365400D02*
X9874435Y7293972D01*
X9874435Y7293972D02*
X10088721Y7293972D01*
X10088721Y7293972D02*
X10231578Y7365400D01*
X10231578Y7365400D02*
X10303007Y7436829D01*
X10803007Y8293972D02*
X11374435Y8293972D01*
X11017292Y8793972D02*
X11017292Y7508258D01*
X11017292Y7508258D02*
X11088721Y7365400D01*
X11088721Y7365400D02*
X11231578Y7293972D01*
X11231578Y7293972D02*
X11374435Y7293972D01*
X11874435Y8293972D02*
X11874435Y6793972D01*
X11874435Y8222543D02*
X12017293Y8293972D01*
X12017293Y8293972D02*
X12303007Y8293972D01*
X12303007Y8293972D02*
X12445864Y8222543D01*
X12445864Y8222543D02*
X12517293Y8151115D01*
X12517293Y8151115D02*
X12588721Y8008258D01*
X12588721Y8008258D02*
X12588721Y7579686D01*
X12588721Y7579686D02*
X12517293Y7436829D01*
X12517293Y7436829D02*
X12445864Y7365400D01*
X12445864Y7365400D02*
X12303007Y7293972D01*
X12303007Y7293972D02*
X12017293Y7293972D01*
X12017293Y7293972D02*
X11874435Y7365400D01*
X13874436Y8293972D02*
X13874436Y7293972D01*
X13231578Y8293972D02*
X13231578Y7508258D01*
X13231578Y7508258D02*
X13303007Y7365400D01*
X13303007Y7365400D02*
X13445864Y7293972D01*
X13445864Y7293972D02*
X13660150Y7293972D01*
X13660150Y7293972D02*
X13803007Y7365400D01*
X13803007Y7365400D02*
X13874436Y7436829D01*
X14374436Y8293972D02*
X14945864Y8293972D01*
X14588721Y8793972D02*
X14588721Y7508258D01*
X14588721Y7508258D02*
X14660150Y7365400D01*
X14660150Y7365400D02*
X14803007Y7293972D01*
X14803007Y7293972D02*
X14945864Y7293972D01*
X15445864Y7436829D02*
X15517293Y7365400D01*
X15517293Y7365400D02*
X15445864Y7293972D01*
X15445864Y7293972D02*
X15374436Y7365400D01*
X15374436Y7365400D02*
X15445864Y7436829D01*
X15445864Y7436829D02*
X15445864Y7293972D01*
X15445864Y8222543D02*
X15517293Y8151115D01*
X15517293Y8151115D02*
X15445864Y8079686D01*
X15445864Y8079686D02*
X15374436Y8151115D01*
X15374436Y8151115D02*
X15445864Y8222543D01*
X15445864Y8222543D02*
X15445864Y8079686D01*
X18017293Y8793972D02*
X17303007Y8793972D01*
X17303007Y8793972D02*
X17231579Y8079686D01*
X17231579Y8079686D02*
X17303007Y8151115D01*
X17303007Y8151115D02*
X17445865Y8222543D01*
X17445865Y8222543D02*
X17803007Y8222543D01*
X17803007Y8222543D02*
X17945865Y8151115D01*
X17945865Y8151115D02*
X18017293Y8079686D01*
X18017293Y8079686D02*
X18088722Y7936829D01*
X18088722Y7936829D02*
X18088722Y7579686D01*
X18088722Y7579686D02*
X18017293Y7436829D01*
X18017293Y7436829D02*
X17945865Y7365400D01*
X17945865Y7365400D02*
X17803007Y7293972D01*
X17803007Y7293972D02*
X17445865Y7293972D01*
X17445865Y7293972D02*
X17303007Y7365400D01*
X17303007Y7365400D02*
X17231579Y7436829D01*
X18517293Y8793972D02*
X19017293Y7293972D01*
X19017293Y7293972D02*
X19517293Y8793972D01*
D12*
X53434819Y19907334D02*
X53434819Y19431144D01*
X53434819Y19431144D02*
X52434819Y19431144D01*
X53434819Y20764477D02*
X53434819Y20193049D01*
X53434819Y20478763D02*
X52434819Y20478763D01*
X52434819Y20478763D02*
X52577676Y20383525D01*
X52577676Y20383525D02*
X52672914Y20288287D01*
X52672914Y20288287D02*
X52720533Y20193049D01*
X68409580Y19145334D02*
X68457200Y19097715D01*
X68457200Y19097715D02*
X68504819Y18954858D01*
X68504819Y18954858D02*
X68504819Y18859620D01*
X68504819Y18859620D02*
X68457200Y18716763D01*
X68457200Y18716763D02*
X68361961Y18621525D01*
X68361961Y18621525D02*
X68266723Y18573906D01*
X68266723Y18573906D02*
X68076247Y18526287D01*
X68076247Y18526287D02*
X67933390Y18526287D01*
X67933390Y18526287D02*
X67742914Y18573906D01*
X67742914Y18573906D02*
X67647676Y18621525D01*
X67647676Y18621525D02*
X67552438Y18716763D01*
X67552438Y18716763D02*
X67504819Y18859620D01*
X67504819Y18859620D02*
X67504819Y18954858D01*
X67504819Y18954858D02*
X67552438Y19097715D01*
X67552438Y19097715D02*
X67600057Y19145334D01*
X67504819Y19478668D02*
X67504819Y20097715D01*
X67504819Y20097715D02*
X67885771Y19764382D01*
X67885771Y19764382D02*
X67885771Y19907239D01*
X67885771Y19907239D02*
X67933390Y20002477D01*
X67933390Y20002477D02*
X67981009Y20050096D01*
X67981009Y20050096D02*
X68076247Y20097715D01*
X68076247Y20097715D02*
X68314342Y20097715D01*
X68314342Y20097715D02*
X68409580Y20050096D01*
X68409580Y20050096D02*
X68457200Y20002477D01*
X68457200Y20002477D02*
X68504819Y19907239D01*
X68504819Y19907239D02*
X68504819Y19621525D01*
X68504819Y19621525D02*
X68457200Y19526287D01*
X68457200Y19526287D02*
X68409580Y19478668D01*
X13048019Y17657867D02*
X13762304Y17657867D01*
X13762304Y17657867D02*
X13905161Y17610248D01*
X13905161Y17610248D02*
X14000400Y17515010D01*
X14000400Y17515010D02*
X14048019Y17372153D01*
X14048019Y17372153D02*
X14048019Y17276915D01*
X14048019Y18657867D02*
X14048019Y18086439D01*
X14048019Y18372153D02*
X13048019Y18372153D01*
X13048019Y18372153D02*
X13190876Y18276915D01*
X13190876Y18276915D02*
X13286114Y18181677D01*
X13286114Y18181677D02*
X13333733Y18086439D01*
X25483580Y17621334D02*
X25531200Y17573715D01*
X25531200Y17573715D02*
X25578819Y17430858D01*
X25578819Y17430858D02*
X25578819Y17335620D01*
X25578819Y17335620D02*
X25531200Y17192763D01*
X25531200Y17192763D02*
X25435961Y17097525D01*
X25435961Y17097525D02*
X25340723Y17049906D01*
X25340723Y17049906D02*
X25150247Y17002287D01*
X25150247Y17002287D02*
X25007390Y17002287D01*
X25007390Y17002287D02*
X24816914Y17049906D01*
X24816914Y17049906D02*
X24721676Y17097525D01*
X24721676Y17097525D02*
X24626438Y17192763D01*
X24626438Y17192763D02*
X24578819Y17335620D01*
X24578819Y17335620D02*
X24578819Y17430858D01*
X24578819Y17430858D02*
X24626438Y17573715D01*
X24626438Y17573715D02*
X24674057Y17621334D01*
X25578819Y18573715D02*
X25578819Y18002287D01*
X25578819Y18288001D02*
X24578819Y18288001D01*
X24578819Y18288001D02*
X24721676Y18192763D01*
X24721676Y18192763D02*
X24816914Y18097525D01*
X24816914Y18097525D02*
X24864533Y18002287D01*
X37636419Y17360896D02*
X38445942Y17360896D01*
X38445942Y17360896D02*
X38541180Y17408515D01*
X38541180Y17408515D02*
X38588800Y17456134D01*
X38588800Y17456134D02*
X38636419Y17551372D01*
X38636419Y17551372D02*
X38636419Y17741848D01*
X38636419Y17741848D02*
X38588800Y17837086D01*
X38588800Y17837086D02*
X38541180Y17884705D01*
X38541180Y17884705D02*
X38445942Y17932324D01*
X38445942Y17932324D02*
X37636419Y17932324D01*
X38636419Y18932324D02*
X38636419Y18360896D01*
X38636419Y18646610D02*
X37636419Y18646610D01*
X37636419Y18646610D02*
X37779276Y18551372D01*
X37779276Y18551372D02*
X37874514Y18456134D01*
X37874514Y18456134D02*
X37922133Y18360896D01*
X18141905Y12725181D02*
X18141905Y13725181D01*
X18141905Y13725181D02*
X18380000Y13725181D01*
X18380000Y13725181D02*
X18522857Y13677562D01*
X18522857Y13677562D02*
X18618095Y13582324D01*
X18618095Y13582324D02*
X18665714Y13487086D01*
X18665714Y13487086D02*
X18713333Y13296610D01*
X18713333Y13296610D02*
X18713333Y13153753D01*
X18713333Y13153753D02*
X18665714Y12963277D01*
X18665714Y12963277D02*
X18618095Y12868039D01*
X18618095Y12868039D02*
X18522857Y12772800D01*
X18522857Y12772800D02*
X18380000Y12725181D01*
X18380000Y12725181D02*
X18141905Y12725181D01*
X19665714Y12725181D02*
X19094286Y12725181D01*
X19380000Y12725181D02*
X19380000Y13725181D01*
X19380000Y13725181D02*
X19284762Y13582324D01*
X19284762Y13582324D02*
X19189524Y13487086D01*
X19189524Y13487086D02*
X19094286Y13439467D01*
X76454819Y10001334D02*
X75978628Y9668001D01*
X76454819Y9429906D02*
X75454819Y9429906D01*
X75454819Y9429906D02*
X75454819Y9810858D01*
X75454819Y9810858D02*
X75502438Y9906096D01*
X75502438Y9906096D02*
X75550057Y9953715D01*
X75550057Y9953715D02*
X75645295Y10001334D01*
X75645295Y10001334D02*
X75788152Y10001334D01*
X75788152Y10001334D02*
X75883390Y9953715D01*
X75883390Y9953715D02*
X75931009Y9906096D01*
X75931009Y9906096D02*
X75978628Y9810858D01*
X75978628Y9810858D02*
X75978628Y9429906D01*
X76454819Y10953715D02*
X76454819Y10382287D01*
X76454819Y10668001D02*
X75454819Y10668001D01*
X75454819Y10668001D02*
X75597676Y10572763D01*
X75597676Y10572763D02*
X75692914Y10477525D01*
X75692914Y10477525D02*
X75740533Y10382287D01*
X63099905Y12035181D02*
X63099905Y13035181D01*
X63099905Y13035181D02*
X63338000Y13035181D01*
X63338000Y13035181D02*
X63480857Y12987562D01*
X63480857Y12987562D02*
X63576095Y12892324D01*
X63576095Y12892324D02*
X63623714Y12797086D01*
X63623714Y12797086D02*
X63671333Y12606610D01*
X63671333Y12606610D02*
X63671333Y12463753D01*
X63671333Y12463753D02*
X63623714Y12273277D01*
X63623714Y12273277D02*
X63576095Y12178039D01*
X63576095Y12178039D02*
X63480857Y12082800D01*
X63480857Y12082800D02*
X63338000Y12035181D01*
X63338000Y12035181D02*
X63099905Y12035181D01*
X64052286Y12939943D02*
X64099905Y12987562D01*
X64099905Y12987562D02*
X64195143Y13035181D01*
X64195143Y13035181D02*
X64433238Y13035181D01*
X64433238Y13035181D02*
X64528476Y12987562D01*
X64528476Y12987562D02*
X64576095Y12939943D01*
X64576095Y12939943D02*
X64623714Y12844705D01*
X64623714Y12844705D02*
X64623714Y12749467D01*
X64623714Y12749467D02*
X64576095Y12606610D01*
X64576095Y12606610D02*
X64004667Y12035181D01*
X64004667Y12035181D02*
X64623714Y12035181D01*
X39729580Y9493334D02*
X39777200Y9445715D01*
X39777200Y9445715D02*
X39824819Y9302858D01*
X39824819Y9302858D02*
X39824819Y9207620D01*
X39824819Y9207620D02*
X39777200Y9064763D01*
X39777200Y9064763D02*
X39681961Y8969525D01*
X39681961Y8969525D02*
X39586723Y8921906D01*
X39586723Y8921906D02*
X39396247Y8874287D01*
X39396247Y8874287D02*
X39253390Y8874287D01*
X39253390Y8874287D02*
X39062914Y8921906D01*
X39062914Y8921906D02*
X38967676Y8969525D01*
X38967676Y8969525D02*
X38872438Y9064763D01*
X38872438Y9064763D02*
X38824819Y9207620D01*
X38824819Y9207620D02*
X38824819Y9302858D01*
X38824819Y9302858D02*
X38872438Y9445715D01*
X38872438Y9445715D02*
X38920057Y9493334D01*
X38920057Y9874287D02*
X38872438Y9921906D01*
X38872438Y9921906D02*
X38824819Y10017144D01*
X38824819Y10017144D02*
X38824819Y10255239D01*
X38824819Y10255239D02*
X38872438Y10350477D01*
X38872438Y10350477D02*
X38920057Y10398096D01*
X38920057Y10398096D02*
X39015295Y10445715D01*
X39015295Y10445715D02*
X39110533Y10445715D01*
X39110533Y10445715D02*
X39253390Y10398096D01*
X39253390Y10398096D02*
X39824819Y9826668D01*
X39824819Y9826668D02*
X39824819Y10445715D01*
X82390019Y17454667D02*
X83104304Y17454667D01*
X83104304Y17454667D02*
X83247161Y17407048D01*
X83247161Y17407048D02*
X83342400Y17311810D01*
X83342400Y17311810D02*
X83390019Y17168953D01*
X83390019Y17168953D02*
X83390019Y17073715D01*
X82485257Y17883239D02*
X82437638Y17930858D01*
X82437638Y17930858D02*
X82390019Y18026096D01*
X82390019Y18026096D02*
X82390019Y18264191D01*
X82390019Y18264191D02*
X82437638Y18359429D01*
X82437638Y18359429D02*
X82485257Y18407048D01*
X82485257Y18407048D02*
X82580495Y18454667D01*
X82580495Y18454667D02*
X82675733Y18454667D01*
X82675733Y18454667D02*
X82818590Y18407048D01*
X82818590Y18407048D02*
X83390019Y17835620D01*
X83390019Y17835620D02*
X83390019Y18454667D01*
X73205619Y5365906D02*
X72205619Y5365906D01*
X72205619Y5365906D02*
X72205619Y5604001D01*
X72205619Y5604001D02*
X72253238Y5746858D01*
X72253238Y5746858D02*
X72348476Y5842096D01*
X72348476Y5842096D02*
X72443714Y5889715D01*
X72443714Y5889715D02*
X72634190Y5937334D01*
X72634190Y5937334D02*
X72777047Y5937334D01*
X72777047Y5937334D02*
X72967523Y5889715D01*
X72967523Y5889715D02*
X73062761Y5842096D01*
X73062761Y5842096D02*
X73158000Y5746858D01*
X73158000Y5746858D02*
X73205619Y5604001D01*
X73205619Y5604001D02*
X73205619Y5365906D01*
X72205619Y6270668D02*
X72205619Y6889715D01*
X72205619Y6889715D02*
X72586571Y6556382D01*
X72586571Y6556382D02*
X72586571Y6699239D01*
X72586571Y6699239D02*
X72634190Y6794477D01*
X72634190Y6794477D02*
X72681809Y6842096D01*
X72681809Y6842096D02*
X72777047Y6889715D01*
X72777047Y6889715D02*
X73015142Y6889715D01*
X73015142Y6889715D02*
X73110380Y6842096D01*
X73110380Y6842096D02*
X73158000Y6794477D01*
X73158000Y6794477D02*
X73205619Y6699239D01*
X73205619Y6699239D02*
X73205619Y6413525D01*
X73205619Y6413525D02*
X73158000Y6318287D01*
X73158000Y6318287D02*
X73110380Y6270668D01*
D13*
%TO.C,L1*%
X54080000Y26374000D02*
X57080000Y26374000D01*
X54080000Y13774000D02*
X54080000Y26374000D01*
X57080000Y13774000D02*
X54080000Y13774000D01*
X63680000Y26374000D02*
X66680000Y26374000D01*
X66680000Y26374000D02*
X66680000Y13774000D01*
X66680000Y13774000D02*
X63680000Y13774000D01*
%TO.C,C3*%
X68990000Y24672000D02*
X72840000Y24672000D01*
X68990000Y15016437D02*
X68990000Y24672000D01*
X70054437Y13952000D02*
X68990000Y15016437D01*
X70054437Y13952000D02*
X72840000Y13952000D01*
X70965000Y13087000D02*
X72215000Y13087000D01*
X71590000Y12462000D02*
X71590000Y13712000D01*
X78645563Y13952000D02*
X75860000Y13952000D01*
X78645563Y13952000D02*
X79710000Y15016437D01*
X79710000Y24672000D02*
X75860000Y24672000D01*
X79710000Y15016437D02*
X79710000Y24672000D01*
%TO.C,J1*%
X4703200Y23071200D02*
X4703200Y12911200D01*
X4703200Y12911200D02*
X12323200Y12911200D01*
X5973200Y12911200D02*
X5973200Y23071200D01*
X12323200Y23071200D02*
X4703200Y23071200D01*
X12323200Y12911200D02*
X12323200Y23071200D01*
%TO.C,C1*%
X26064000Y23148000D02*
X29914000Y23148000D01*
X26064000Y13492437D02*
X26064000Y23148000D01*
X27128437Y12428000D02*
X26064000Y13492437D01*
X27128437Y12428000D02*
X29914000Y12428000D01*
X28039000Y11563000D02*
X29289000Y11563000D01*
X28664000Y10938000D02*
X28664000Y12188000D01*
X35719563Y12428000D02*
X32934000Y12428000D01*
X35719563Y12428000D02*
X36784000Y13492437D01*
X36784000Y23148000D02*
X32934000Y23148000D01*
X36784000Y13492437D02*
X36784000Y23148000D01*
%TO.C,U1*%
X39631600Y14797800D02*
X39631600Y13297800D01*
X39631600Y13297800D02*
X40581600Y13297800D01*
X50031600Y14797800D02*
X50031600Y13297800D01*
X50031600Y13297800D02*
X49081600Y13297800D01*
X40581600Y10735300D02*
X40251600Y10495300D01*
X40251600Y10975300D01*
X40581600Y10735300D01*
G36*
X40581600Y10735300D02*
G01*
X40251600Y10495300D01*
X40251600Y10975300D01*
X40581600Y10735300D01*
G37*
%TO.C,D1*%
X23790000Y20530000D02*
X15280000Y20530000D01*
X23790000Y20530000D02*
X23790000Y14030000D01*
X23790000Y14030000D02*
X15280000Y14030000D01*
%TO.C,R1*%
X73615000Y10395064D02*
X73615000Y9940936D01*
X75085000Y10395064D02*
X75085000Y9940936D01*
%TO.C,D2*%
X58928000Y11640000D02*
X67438000Y11640000D01*
X58928000Y5140000D02*
X58928000Y11640000D01*
X58928000Y5140000D02*
X67438000Y5140000D01*
%TO.C,C2*%
X36610000Y10371252D02*
X36610000Y8948748D01*
X38430000Y10371252D02*
X38430000Y8948748D01*
%TO.C,J2*%
X84205200Y22868000D02*
X84205200Y12708000D01*
X84205200Y12708000D02*
X91825200Y12708000D01*
X90555200Y22868000D02*
X90555200Y12708000D01*
X91825200Y22868000D02*
X84205200Y22868000D01*
X91825200Y12708000D02*
X91825200Y22868000D01*
%TO.C,D3*%
X73440800Y7104000D02*
X73440800Y4419000D01*
X73440800Y4419000D02*
X75360800Y4419000D01*
X75360800Y4419000D02*
X75360800Y7104000D01*
%TD*%
M02*
