%TF.GenerationSoftware,KiCad,Pcbnew,9.0.6*%
%TF.CreationDate,2026-05-04T21:52:56+02:00*%
%TF.ProjectId,DC_DC_5V_Buck_Converter,44435f44-435f-4355-965f-4275636b5f43,rev?*%
%TF.SameCoordinates,PX572a740PY6dc4960*%
%TF.FileFunction,Copper,L1,Top*%
%TF.FilePolarity,Positive*%
%FSLAX46Y46*%
G04 Gerber Fmt 4.6, Leading zero omitted, Abs format (unit mm)*
G04 Created by KiCad (PCBNEW 9.0.6) date 2026-05-04 21:52:56*
%MOMM*%
%LPD*%
G01*
G04 APERTURE LIST*
G04 Aperture macros list*
%AMRoundRect*
0 Rectangle with rounded corners*
0 $1 Rounding radius*
0 $2 $3 $4 $5 $6 $7 $8 $9 X,Y pos of 4 corners*
0 Add a 4 corners polygon primitive as box body*
4,1,4,$2,$3,$4,$5,$6,$7,$8,$9,$2,$3,0*
0 Add four circle primitives for the rounded corners*
1,1,$1+$1,$2,$3*
1,1,$1+$1,$4,$5*
1,1,$1+$1,$6,$7*
1,1,$1+$1,$8,$9*
0 Add four rect primitives between the rounded corners*
20,1,$1+$1,$2,$3,$4,$5,0*
20,1,$1+$1,$4,$5,$6,$7,0*
20,1,$1+$1,$6,$7,$8,$9,0*
20,1,$1+$1,$8,$9,$2,$3,0*%
G04 Aperture macros list end*
%TA.AperFunction,SMDPad,CuDef*%
%ADD10R,5.400000X2.900000*%
%TD*%
%TA.AperFunction,SMDPad,CuDef*%
%ADD11RoundRect,0.250000X1.000000X-1.950000X1.000000X1.950000X-1.000000X1.950000X-1.000000X-1.950000X0*%
%TD*%
%TA.AperFunction,ComponentPad*%
%ADD12R,3.000000X3.000000*%
%TD*%
%TA.AperFunction,ComponentPad*%
%ADD13C,3.000000*%
%TD*%
%TA.AperFunction,SMDPad,CuDef*%
%ADD14RoundRect,0.250000X0.300000X-2.050000X0.300000X2.050000X-0.300000X2.050000X-0.300000X-2.050000X0*%
%TD*%
%TA.AperFunction,SMDPad,CuDef*%
%ADD15RoundRect,0.250000X2.375000X-2.025000X2.375000X2.025000X-2.375000X2.025000X-2.375000X-2.025000X0*%
%TD*%
%TA.AperFunction,SMDPad,CuDef*%
%ADD16RoundRect,0.250002X5.149998X-4.449998X5.149998X4.449998X-5.149998X4.449998X-5.149998X-4.449998X0*%
%TD*%
%TA.AperFunction,SMDPad,CuDef*%
%ADD17RoundRect,0.250000X-1.000000X1.400000X-1.000000X-1.400000X1.000000X-1.400000X1.000000X1.400000X0*%
%TD*%
%TA.AperFunction,SMDPad,CuDef*%
%ADD18RoundRect,0.250000X-0.450000X0.262500X-0.450000X-0.262500X0.450000X-0.262500X0.450000X0.262500X0*%
%TD*%
%TA.AperFunction,SMDPad,CuDef*%
%ADD19RoundRect,0.250000X1.000000X-1.400000X1.000000X1.400000X-1.000000X1.400000X-1.000000X-1.400000X0*%
%TD*%
%TA.AperFunction,SMDPad,CuDef*%
%ADD20RoundRect,0.250000X-0.650000X0.325000X-0.650000X-0.325000X0.650000X-0.325000X0.650000X0.325000X0*%
%TD*%
%TA.AperFunction,SMDPad,CuDef*%
%ADD21RoundRect,0.243750X0.456250X-0.243750X0.456250X0.243750X-0.456250X0.243750X-0.456250X-0.243750X0*%
%TD*%
%TA.AperFunction,ViaPad*%
%ADD22C,0.700000*%
%TD*%
%TA.AperFunction,Conductor*%
%ADD23C,1.500000*%
%TD*%
%TA.AperFunction,Conductor*%
%ADD24C,0.300000*%
%TD*%
%TA.AperFunction,Conductor*%
%ADD25C,0.200000*%
%TD*%
%TA.AperFunction,Conductor*%
%ADD26C,1.000000*%
%TD*%
G04 APERTURE END LIST*
D10*
%TO.P,L1,1,1*%
%TO.N,/OUT*%
X60380000Y15124000D03*
%TO.P,L1,2,2*%
%TO.N,+5V*%
X60380000Y25024000D03*
%TD*%
D11*
%TO.P,C3,1*%
%TO.N,+5V*%
X74350000Y15112000D03*
%TO.P,C3,2*%
%TO.N,GND*%
X74350000Y23512000D03*
%TD*%
D12*
%TO.P,J1,1,Pin_1*%
%TO.N,GND*%
X8513200Y20531200D03*
D13*
%TO.P,J1,2,Pin_2*%
%TO.N,VDC*%
X8513200Y15451200D03*
%TD*%
D11*
%TO.P,C1,1*%
%TO.N,/VIN*%
X31424000Y13588000D03*
%TO.P,C1,2*%
%TO.N,GND*%
X31424000Y21988000D03*
%TD*%
D14*
%TO.P,U1,1,VIN*%
%TO.N,/VIN*%
X41431600Y10472800D03*
%TO.P,U1,2,OUT*%
%TO.N,/OUT*%
X43131600Y10472800D03*
%TO.P,U1,3,GND*%
%TO.N,GND*%
X44831600Y10472800D03*
D15*
X42056600Y17197800D03*
X47606600Y17197800D03*
D16*
X44831600Y19622800D03*
D15*
X42056600Y22047800D03*
X47606600Y22047800D03*
D14*
%TO.P,U1,4,FB*%
%TO.N,+5V*%
X46531600Y10472800D03*
%TO.P,U1,5,~{ON}/OFF*%
%TO.N,GND*%
X48231600Y10472800D03*
%TD*%
D17*
%TO.P,D1,1,K*%
%TO.N,/VIN*%
X22280000Y17280000D03*
%TO.P,D1,2,A*%
%TO.N,VDC*%
X15480000Y17280000D03*
%TD*%
D18*
%TO.P,R1,1*%
%TO.N,+5V*%
X74350000Y11080500D03*
%TO.P,R1,2*%
%TO.N,Net-(D3-A)*%
X74350000Y9255500D03*
%TD*%
D19*
%TO.P,D2,1,K*%
%TO.N,/OUT*%
X60438000Y8390000D03*
%TO.P,D2,2,A*%
%TO.N,GND*%
X67238000Y8390000D03*
%TD*%
D20*
%TO.P,C2,1*%
%TO.N,/VIN*%
X37520000Y11135000D03*
%TO.P,C2,2*%
%TO.N,GND*%
X37520000Y8185000D03*
%TD*%
D12*
%TO.P,J2,1,Pin_1*%
%TO.N,+5V*%
X88015200Y15248000D03*
D13*
%TO.P,J2,2,Pin_2*%
%TO.N,GND*%
X88015200Y20328000D03*
%TD*%
D21*
%TO.P,D3,1,K*%
%TO.N,GND*%
X74400800Y5166500D03*
%TO.P,D3,2,A*%
%TO.N,Net-(D3-A)*%
X74400800Y7041500D03*
%TD*%
D22*
%TO.N,GND*%
X60600000Y29600000D03*
X36600000Y29600000D03*
X15000000Y2600000D03*
X77600000Y2600000D03*
X16600000Y29600000D03*
X24600000Y29600000D03*
X73600000Y2600000D03*
X69600000Y2600000D03*
X13000000Y6100000D03*
X83600000Y6100000D03*
X81600000Y2600000D03*
X74600000Y26600000D03*
X44600000Y29600000D03*
X10600000Y26100000D03*
X35000000Y2600000D03*
X88600000Y29600000D03*
X64600000Y29600000D03*
X37000000Y6100000D03*
X33000000Y6100000D03*
X85600000Y9100000D03*
X28600000Y29600000D03*
X52600000Y29600000D03*
X84600000Y29600000D03*
X38600000Y26100000D03*
X31000000Y2600000D03*
X87600000Y6100000D03*
X53100000Y11600000D03*
X85600000Y2600000D03*
X92600000Y29600000D03*
X22600000Y26100000D03*
X20600000Y29600000D03*
X19000000Y2600000D03*
X72600000Y29600000D03*
X4600000Y29600000D03*
X17000000Y6100000D03*
X7000000Y2600000D03*
X86600000Y26600000D03*
X56600000Y29600000D03*
X29000000Y6100000D03*
X48600000Y29600000D03*
X78600000Y26600000D03*
X23000000Y2600000D03*
X14600000Y26100000D03*
X76600000Y29600000D03*
X65600000Y2600000D03*
X12600000Y29600000D03*
X80600000Y29600000D03*
X21000000Y6100000D03*
X6600000Y26100000D03*
X27000000Y2600000D03*
X26600000Y26100000D03*
X50600000Y26100000D03*
X2600000Y26100000D03*
X82600000Y26600000D03*
X79600000Y6100000D03*
X51600000Y8100000D03*
X30600000Y26100000D03*
X81600000Y9100000D03*
X42600000Y26100000D03*
X34600000Y26100000D03*
X5000000Y6100000D03*
X11000000Y2600000D03*
X40600000Y29600000D03*
X61600000Y2600000D03*
X18600000Y26100000D03*
X89600000Y2600000D03*
X25000000Y6100000D03*
X46600000Y26100000D03*
X32600000Y29600000D03*
X91600000Y6100000D03*
X90600000Y26600000D03*
X39100000Y2600000D03*
X68600000Y29600000D03*
X9000000Y6100000D03*
X89600000Y9100000D03*
X70600000Y26600000D03*
X8600000Y29600000D03*
%TD*%
D23*
%TO.N,+5V*%
X64066000Y25024000D02*
X67746000Y21344000D01*
D24*
X46531600Y13083600D02*
X47172000Y13724000D01*
X52302800Y14867000D02*
X52302800Y23426800D01*
X52302800Y23426800D02*
X53900000Y25024000D01*
D25*
X74350000Y15112000D02*
X74350000Y11080500D01*
D23*
X60380000Y25024000D02*
X64066000Y25024000D01*
X67746000Y21344000D02*
X67746000Y17534000D01*
D24*
X51159800Y13724000D02*
X52302800Y14867000D01*
X53900000Y25024000D02*
X60380000Y25024000D01*
D23*
X74350000Y15112000D02*
X87879200Y15112000D01*
D25*
X74350000Y15112000D02*
X74246500Y15008500D01*
D24*
X47172000Y13724000D02*
X51159800Y13724000D01*
D23*
X87879200Y15112000D02*
X88015200Y15248000D01*
X74350000Y15112000D02*
X70168000Y15112000D01*
X70168000Y15112000D02*
X67746000Y17534000D01*
D26*
X74232000Y14994000D02*
X74350000Y15112000D01*
D25*
X74246500Y11184000D02*
X74350000Y11080500D01*
D24*
X46531600Y10472800D02*
X46531600Y13083600D01*
D25*
%TO.N,Net-(D3-A)*%
X74350000Y7092300D02*
X74400800Y7041500D01*
X74350000Y9255500D02*
X74350000Y7092300D01*
%TD*%
%TA.AperFunction,Conductor*%
%TO.N,/OUT*%
G36*
X63799277Y17082515D02*
G01*
X63819919Y17065881D01*
X64306081Y16579719D01*
X64339566Y16518396D01*
X64342400Y16492038D01*
X64342400Y7477785D01*
X64322715Y7410746D01*
X64304112Y7388177D01*
X63209955Y6341592D01*
X63147903Y6309478D01*
X63124243Y6307200D01*
X58805200Y6307200D01*
X56251100Y3602859D01*
X56190758Y3567636D01*
X56160950Y3564000D01*
X42905362Y3564000D01*
X42838323Y3583685D01*
X42817681Y3600319D01*
X42433119Y3984881D01*
X42399634Y4046204D01*
X42396800Y4072562D01*
X42396800Y7471355D01*
X42405177Y7499887D01*
X42411034Y7529038D01*
X42415531Y7535147D01*
X42416485Y7538394D01*
X42431731Y7557626D01*
X42432408Y7558326D01*
X42479685Y7605602D01*
X42493593Y7620073D01*
X42500264Y7627296D01*
X42511783Y7640277D01*
X42513028Y7641561D01*
X42514728Y7643830D01*
X42514891Y7644047D01*
X42516433Y7646099D01*
X42516503Y7646201D01*
X42535459Y7671524D01*
X42535460Y7671523D01*
X42548065Y7688361D01*
X42579956Y7737986D01*
X42587070Y7749057D01*
X42587070Y7749059D01*
X42587073Y7749062D01*
X42608830Y7807405D01*
X42609658Y7807034D01*
X42618892Y7827682D01*
X42618909Y7827721D01*
X42627021Y7856186D01*
X42637347Y7883873D01*
X42642154Y7905976D01*
X42642153Y7905977D01*
X42644348Y7916068D01*
X42646257Y7923680D01*
X42658346Y7966091D01*
X42657830Y8030944D01*
X42662457Y8095635D01*
X42650994Y8148324D01*
X42650778Y8152260D01*
X42650107Y8156678D01*
X42650108Y8156678D01*
X42647755Y8172169D01*
X42646837Y8178211D01*
X42646641Y8179506D01*
X42646639Y8179511D01*
X42646623Y8179620D01*
X42646611Y8179699D01*
X42645984Y8183842D01*
X42645973Y8183900D01*
X42643840Y8197939D01*
X42641144Y8201483D01*
X42639348Y8224081D01*
X42628892Y8255633D01*
X42628892Y8255637D01*
X42626816Y8261901D01*
X42626626Y8262472D01*
X42626627Y8262472D01*
X42593127Y8363566D01*
X42587474Y8389990D01*
X42587237Y8392309D01*
X42586600Y8404864D01*
X42586600Y12540742D01*
X42587242Y12553342D01*
X42587476Y12555633D01*
X42593126Y12582030D01*
X42608533Y12628529D01*
X42612729Y12639434D01*
X42661463Y12750190D01*
X42679923Y12815285D01*
X42699100Y12953199D01*
X42699100Y13041200D01*
X42718785Y13108239D01*
X42771589Y13153994D01*
X42823100Y13165200D01*
X43615438Y13165200D01*
X43644878Y13156556D01*
X43674865Y13150032D01*
X43679880Y13146278D01*
X43682477Y13145515D01*
X43703119Y13128881D01*
X43832040Y12999960D01*
X43865525Y12938637D01*
X43860541Y12868945D01*
X43849905Y12847194D01*
X43846788Y12842141D01*
X43846788Y12842140D01*
X43846786Y12842135D01*
X43846786Y12842134D01*
X43791601Y12675597D01*
X43791601Y12675596D01*
X43791600Y12675596D01*
X43781100Y12572817D01*
X43781100Y8372799D01*
X43781101Y8372782D01*
X43791600Y8270004D01*
X43791601Y8270001D01*
X43824020Y8172169D01*
X43846786Y8103466D01*
X43851539Y8095760D01*
X43870000Y8030664D01*
X43870000Y6434200D01*
X44200200Y6104000D01*
X52785400Y6104000D01*
X53420399Y6104000D01*
X53420400Y6104000D01*
X56366800Y8999600D01*
X56366800Y16492038D01*
X56386485Y16559077D01*
X56403119Y16579719D01*
X56889281Y17065881D01*
X56950604Y17099366D01*
X56976962Y17102200D01*
X63732238Y17102200D01*
X63799277Y17082515D01*
G37*
%TD.AperFunction*%
%TD*%
%TA.AperFunction,Conductor*%
%TO.N,GND*%
G36*
X92724494Y31867104D02*
G01*
X92724508Y31867100D01*
X92787163Y31867100D01*
X92793643Y31866931D01*
X93113920Y31850145D01*
X93126827Y31848788D01*
X93189959Y31838789D01*
X93440387Y31799126D01*
X93453052Y31796435D01*
X93759734Y31714260D01*
X93772054Y31710256D01*
X94068451Y31596479D01*
X94080287Y31591210D01*
X94324157Y31466952D01*
X94363164Y31447077D01*
X94374404Y31440587D01*
X94640643Y31267690D01*
X94651144Y31260061D01*
X94897865Y31060270D01*
X94907510Y31051585D01*
X95131984Y30827111D01*
X95140669Y30817466D01*
X95340460Y30570745D01*
X95348089Y30560244D01*
X95520986Y30294005D01*
X95527476Y30282765D01*
X95671604Y29999898D01*
X95676883Y29988041D01*
X95790652Y29691665D01*
X95794663Y29679321D01*
X95876829Y29372673D01*
X95879527Y29359976D01*
X95929187Y29046428D01*
X95930544Y29033521D01*
X95947330Y28713244D01*
X95947500Y28706754D01*
X95947500Y3821247D01*
X95947330Y3814757D01*
X95930544Y3494480D01*
X95929187Y3481573D01*
X95879527Y3168025D01*
X95876829Y3155328D01*
X95794663Y2848680D01*
X95790652Y2836336D01*
X95676883Y2539960D01*
X95671604Y2528103D01*
X95527476Y2245236D01*
X95520986Y2233996D01*
X95348089Y1967757D01*
X95340460Y1957256D01*
X95140669Y1710535D01*
X95131984Y1700890D01*
X94907510Y1476416D01*
X94897865Y1467731D01*
X94651144Y1267940D01*
X94640643Y1260311D01*
X94374404Y1087414D01*
X94363164Y1080924D01*
X94080297Y936796D01*
X94068440Y931517D01*
X93772064Y817748D01*
X93759720Y813737D01*
X93453072Y731571D01*
X93440375Y728873D01*
X93126827Y679213D01*
X93113920Y677856D01*
X92793644Y661070D01*
X92787159Y660900D01*
X92724508Y660900D01*
X92724499Y660899D01*
X92717932Y660898D01*
X92717932Y660897D01*
X3588841Y656416D01*
X3582346Y656586D01*
X3278301Y672519D01*
X3262080Y673370D01*
X3249174Y674726D01*
X3175659Y686370D01*
X2935627Y724387D01*
X2922931Y727085D01*
X2616279Y809253D01*
X2603935Y813264D01*
X2307561Y927031D01*
X2295704Y932310D01*
X2292689Y933846D01*
X2012840Y1076437D01*
X2001600Y1082927D01*
X1735360Y1255826D01*
X1724859Y1263455D01*
X1478140Y1463245D01*
X1468495Y1471930D01*
X1244022Y1696404D01*
X1235337Y1706049D01*
X1231704Y1710535D01*
X1035540Y1952779D01*
X1027925Y1963260D01*
X855015Y2229518D01*
X848528Y2240755D01*
X704405Y2523617D01*
X699126Y2535473D01*
X697404Y2539960D01*
X585355Y2831859D01*
X581348Y2844192D01*
X499179Y3150854D01*
X496486Y3163529D01*
X446825Y3477085D01*
X445468Y3489993D01*
X428670Y3810536D01*
X428500Y3817025D01*
X428500Y7810014D01*
X36120001Y7810014D01*
X36130494Y7707303D01*
X36185641Y7540881D01*
X36185643Y7540876D01*
X36277684Y7391655D01*
X36401654Y7267685D01*
X36550875Y7175644D01*
X36550880Y7175642D01*
X36717302Y7120495D01*
X36717309Y7120494D01*
X36820019Y7110001D01*
X37269999Y7110001D01*
X37770000Y7110001D01*
X38219972Y7110001D01*
X38219986Y7110002D01*
X38322697Y7120495D01*
X38489119Y7175642D01*
X38489124Y7175644D01*
X38638345Y7267685D01*
X38762315Y7391655D01*
X38854356Y7540876D01*
X38854358Y7540881D01*
X38909505Y7707303D01*
X38909506Y7707310D01*
X38919999Y7810014D01*
X38920000Y7810027D01*
X38920000Y7935000D01*
X37770000Y7935000D01*
X37770000Y7110001D01*
X37269999Y7110001D01*
X37270000Y7110002D01*
X37270000Y7935000D01*
X36120001Y7935000D01*
X36120001Y7810014D01*
X428500Y7810014D01*
X428500Y8559987D01*
X36120000Y8559987D01*
X36120000Y8435000D01*
X37270000Y8435000D01*
X37770000Y8435000D01*
X38919999Y8435000D01*
X38919999Y8559972D01*
X38919998Y8559987D01*
X38909505Y8662698D01*
X38854358Y8829120D01*
X38854356Y8829125D01*
X38762315Y8978346D01*
X38638345Y9102316D01*
X38489124Y9194357D01*
X38489119Y9194359D01*
X38322697Y9249506D01*
X38322690Y9249507D01*
X38219986Y9260000D01*
X37770000Y9260000D01*
X37770000Y8435000D01*
X37270000Y8435000D01*
X37270000Y9260000D01*
X36820028Y9260000D01*
X36820012Y9259999D01*
X36717302Y9249506D01*
X36550880Y9194359D01*
X36550875Y9194357D01*
X36401654Y9102316D01*
X36277684Y8978346D01*
X36185643Y8829125D01*
X36185641Y8829120D01*
X36130494Y8662698D01*
X36130493Y8662691D01*
X36120000Y8559987D01*
X428500Y8559987D01*
X428500Y16720637D01*
X5518500Y16720637D01*
X5518500Y13785998D01*
X5526490Y13696481D01*
X5534271Y13653237D01*
X5557993Y13566539D01*
X5601702Y13486323D01*
X5626834Y13440200D01*
X5652002Y13406516D01*
X5668656Y13384227D01*
X5722523Y13330263D01*
X5770300Y13282400D01*
X6703633Y12582400D01*
X6718476Y12571682D01*
X6725837Y12566567D01*
X6740997Y12556433D01*
X6871874Y12496662D01*
X6938913Y12476977D01*
X6938917Y12476976D01*
X7081333Y12456500D01*
X7081336Y12456500D01*
X16894640Y12456500D01*
X16904786Y12457045D01*
X16948678Y12459397D01*
X16948686Y12459398D01*
X16948688Y12459398D01*
X16948689Y12459398D01*
X16955682Y12460151D01*
X16975036Y12462231D01*
X16975046Y12462233D01*
X16975049Y12462233D01*
X16984648Y12463789D01*
X17028448Y12470886D01*
X17163257Y12521168D01*
X17224580Y12554653D01*
X17339761Y12640877D01*
X18029123Y13330239D01*
X18065288Y13370500D01*
X18081922Y13391142D01*
X18113567Y13435026D01*
X18173338Y13565903D01*
X18193023Y13632942D01*
X18193024Y13632946D01*
X18213500Y13775362D01*
X18213500Y19006637D01*
X19488500Y19006637D01*
X19488500Y15553360D01*
X19491397Y15499312D01*
X19491397Y15499311D01*
X19494229Y15472978D01*
X19494232Y15472951D01*
X19502885Y15419555D01*
X19502885Y15419553D01*
X19553166Y15284748D01*
X19553168Y15284743D01*
X19586653Y15223420D01*
X19672877Y15108239D01*
X19672881Y15108235D01*
X19672886Y15108229D01*
X20023931Y14757185D01*
X20362239Y14418877D01*
X20362255Y14418863D01*
X20362262Y14418856D01*
X20402480Y14382729D01*
X20402492Y14382719D01*
X20402500Y14382712D01*
X20423142Y14366078D01*
X20467026Y14334433D01*
X20597903Y14274662D01*
X20664942Y14254977D01*
X20664946Y14254976D01*
X20807362Y14234500D01*
X27861254Y14234500D01*
X27928293Y14214815D01*
X27948935Y14198181D01*
X28342181Y13804935D01*
X28375666Y13743612D01*
X28378500Y13717254D01*
X28378500Y10981360D01*
X28381397Y10927312D01*
X28381397Y10927311D01*
X28384229Y10900978D01*
X28384232Y10900951D01*
X28392885Y10847555D01*
X28392885Y10847553D01*
X28422565Y10767981D01*
X28443168Y10712743D01*
X28465555Y10671744D01*
X28468779Y10665839D01*
X28476653Y10651420D01*
X28562877Y10536239D01*
X28562881Y10536235D01*
X28562886Y10536229D01*
X28931116Y10168000D01*
X29252239Y9846877D01*
X29252255Y9846863D01*
X29252262Y9846856D01*
X29292480Y9810729D01*
X29292492Y9810719D01*
X29292500Y9810712D01*
X29313142Y9794078D01*
X29357026Y9762433D01*
X29487903Y9702662D01*
X29554942Y9682977D01*
X29554946Y9682976D01*
X29697362Y9662500D01*
X39291254Y9662500D01*
X39320694Y9653856D01*
X39350681Y9647332D01*
X39355696Y9643578D01*
X39358293Y9642815D01*
X39378935Y9626181D01*
X39518181Y9486935D01*
X39551666Y9425612D01*
X39554500Y9399254D01*
X39554500Y8085760D01*
X39557397Y8031712D01*
X39557397Y8031711D01*
X39560229Y8005378D01*
X39560232Y8005351D01*
X39568885Y7951955D01*
X39568885Y7951953D01*
X39614339Y7830090D01*
X39619168Y7817143D01*
X39652653Y7755820D01*
X39738877Y7640639D01*
X39738881Y7640635D01*
X39738886Y7640629D01*
X39830715Y7548801D01*
X39920239Y7459277D01*
X39920255Y7459263D01*
X39920262Y7459256D01*
X39960480Y7423129D01*
X39960492Y7423119D01*
X39960500Y7423112D01*
X39981142Y7406478D01*
X40025026Y7374833D01*
X40155903Y7315062D01*
X40222942Y7295377D01*
X40222946Y7295376D01*
X40365362Y7274900D01*
X40365365Y7274900D01*
X41767300Y7274900D01*
X41834339Y7255215D01*
X41880094Y7202411D01*
X41891300Y7150900D01*
X41891300Y4072560D01*
X41894197Y4018512D01*
X41894197Y4018511D01*
X41897029Y3992178D01*
X41897032Y3992151D01*
X41905685Y3938755D01*
X41905685Y3938753D01*
X41952399Y3813512D01*
X41955968Y3803943D01*
X41978355Y3762944D01*
X41986721Y3747622D01*
X41989453Y3742620D01*
X42075677Y3627439D01*
X42075681Y3627435D01*
X42075686Y3627429D01*
X42447345Y3255771D01*
X42460239Y3242877D01*
X42460255Y3242863D01*
X42460262Y3242856D01*
X42500480Y3206729D01*
X42500492Y3206719D01*
X42500500Y3206712D01*
X42521142Y3190078D01*
X42565026Y3158433D01*
X42695903Y3098662D01*
X42762942Y3078977D01*
X42762946Y3078976D01*
X42905362Y3058500D01*
X42905365Y3058500D01*
X56160948Y3058500D01*
X56160950Y3058500D01*
X56222158Y3062219D01*
X56251966Y3065855D01*
X56312274Y3076959D01*
X56445592Y3131070D01*
X56505934Y3166293D01*
X56618605Y3255771D01*
X58146163Y4873185D01*
X73200800Y4873185D01*
X73211207Y4771327D01*
X73265894Y4606291D01*
X73265896Y4606286D01*
X73357170Y4458309D01*
X73480108Y4335371D01*
X73628085Y4244097D01*
X73628090Y4244095D01*
X73793126Y4189408D01*
X73894984Y4179001D01*
X73894997Y4179000D01*
X74150800Y4179000D01*
X74650800Y4179000D01*
X74906603Y4179000D01*
X74906615Y4179001D01*
X75008473Y4189408D01*
X75173509Y4244095D01*
X75173514Y4244097D01*
X75321491Y4335371D01*
X75444429Y4458309D01*
X75535703Y4606286D01*
X75535705Y4606291D01*
X75590392Y4771327D01*
X75600799Y4873185D01*
X75600800Y4873198D01*
X75600800Y4916500D01*
X74650800Y4916500D01*
X74650800Y4179000D01*
X74150800Y4179000D01*
X74150800Y4916500D01*
X73200800Y4916500D01*
X73200800Y4873185D01*
X58146163Y4873185D01*
X58700191Y5459803D01*
X58986394Y5762841D01*
X59046736Y5798064D01*
X59076544Y5801700D01*
X63124240Y5801700D01*
X63124243Y5801700D01*
X63124250Y5801701D01*
X63124269Y5801701D01*
X63139768Y5802446D01*
X63172689Y5804027D01*
X63180575Y5804787D01*
X63196313Y5806301D01*
X63196331Y5806304D01*
X63196349Y5806305D01*
X63244352Y5813265D01*
X63380245Y5860538D01*
X63441624Y5892305D01*
X63442231Y5892613D01*
X63442287Y5892648D01*
X63442297Y5892652D01*
X63442299Y5892653D01*
X63559368Y5976297D01*
X64566890Y6940014D01*
X65488001Y6940014D01*
X65498494Y6837303D01*
X65553641Y6670881D01*
X65553643Y6670876D01*
X65645684Y6521655D01*
X65769654Y6397685D01*
X65918875Y6305644D01*
X65918880Y6305642D01*
X66085302Y6250495D01*
X66085309Y6250494D01*
X66188019Y6240001D01*
X66987999Y6240001D01*
X67488000Y6240001D01*
X68287972Y6240001D01*
X68287986Y6240002D01*
X68390697Y6250495D01*
X68557119Y6305642D01*
X68557124Y6305644D01*
X68706345Y6397685D01*
X68830315Y6521655D01*
X68922356Y6670876D01*
X68922358Y6670881D01*
X68977505Y6837303D01*
X68977506Y6837310D01*
X68987999Y6940014D01*
X68988000Y6940027D01*
X68988000Y8140000D01*
X67488000Y8140000D01*
X67488000Y6240001D01*
X66987999Y6240001D01*
X66988000Y6240002D01*
X66988000Y8140000D01*
X65488001Y8140000D01*
X65488001Y6940014D01*
X64566890Y6940014D01*
X64653525Y7022882D01*
X64694181Y7066654D01*
X64712784Y7089223D01*
X64747967Y7137449D01*
X64807738Y7268326D01*
X64827423Y7335365D01*
X64827424Y7335369D01*
X64847900Y7477785D01*
X64847900Y9839987D01*
X65488000Y9839987D01*
X65488000Y8640000D01*
X66988000Y8640000D01*
X67488000Y8640000D01*
X68987999Y8640000D01*
X68987999Y9839972D01*
X68987998Y9839987D01*
X68977505Y9942698D01*
X68922358Y10109120D01*
X68922356Y10109125D01*
X68830315Y10258346D01*
X68706345Y10382316D01*
X68557124Y10474357D01*
X68557119Y10474359D01*
X68390697Y10529506D01*
X68390690Y10529507D01*
X68287986Y10540000D01*
X67488000Y10540000D01*
X67488000Y8640000D01*
X66988000Y8640000D01*
X66988000Y10540000D01*
X66188028Y10540000D01*
X66188012Y10539999D01*
X66085302Y10529506D01*
X65918880Y10474359D01*
X65918875Y10474357D01*
X65769654Y10382316D01*
X65645684Y10258346D01*
X65553643Y10109125D01*
X65553641Y10109120D01*
X65498494Y9942698D01*
X65498493Y9942691D01*
X65488000Y9839987D01*
X64847900Y9839987D01*
X64847900Y16492038D01*
X64845003Y16546078D01*
X64842169Y16572436D01*
X64833514Y16625848D01*
X64783232Y16760657D01*
X64749747Y16821980D01*
X64663523Y16937161D01*
X64663518Y16937166D01*
X64663513Y16937172D01*
X64177376Y17423308D01*
X64177370Y17423314D01*
X64177361Y17423323D01*
X64177337Y17423345D01*
X64137119Y17459472D01*
X64137107Y17459482D01*
X64116456Y17476124D01*
X64072574Y17507767D01*
X63941700Y17567537D01*
X63874655Y17587224D01*
X63827182Y17594050D01*
X63732238Y17607700D01*
X56976962Y17607700D01*
X56976960Y17607700D01*
X56922911Y17604803D01*
X56922910Y17604803D01*
X56896577Y17601971D01*
X56896550Y17601968D01*
X56843154Y17593315D01*
X56843152Y17593315D01*
X56708347Y17543034D01*
X56647022Y17509549D01*
X56531840Y17423324D01*
X56531828Y17423314D01*
X56045692Y16937177D01*
X56045655Y16937138D01*
X56009528Y16896920D01*
X56009518Y16896908D01*
X55992876Y16876257D01*
X55961233Y16832375D01*
X55901463Y16701501D01*
X55881776Y16634456D01*
X55880538Y16625846D01*
X55861301Y16492041D01*
X55861300Y16492037D01*
X55861300Y9263561D01*
X55841615Y9196522D01*
X55824216Y9175121D01*
X53890660Y7274901D01*
X53339761Y6733500D01*
X53249769Y6645060D01*
X53188157Y6612109D01*
X53162853Y6609500D01*
X44499500Y6609500D01*
X44432461Y6629185D01*
X44386706Y6681989D01*
X44375500Y6733500D01*
X44375500Y7548801D01*
X44395185Y7615840D01*
X44447989Y7661595D01*
X44499499Y7672801D01*
X44581600Y7672802D01*
X44581600Y13272801D01*
X44481628Y13272800D01*
X44481612Y13272799D01*
X44378899Y13262306D01*
X44368922Y13259000D01*
X44299093Y13256602D01*
X44239054Y13292337D01*
X44230658Y13302398D01*
X44189488Y13357395D01*
X44189479Y13357405D01*
X44155157Y13391727D01*
X44060561Y13486323D01*
X44060537Y13486345D01*
X44020319Y13522472D01*
X44020289Y13522497D01*
X43999665Y13539117D01*
X43955839Y13570725D01*
X43953641Y13571730D01*
X43945581Y13575413D01*
X43917136Y13593693D01*
X43854121Y13617198D01*
X43850083Y13619043D01*
X43850082Y13619044D01*
X43824976Y13630514D01*
X43824974Y13630515D01*
X43824971Y13630516D01*
X43822374Y13631279D01*
X43822373Y13631279D01*
X43798345Y13638338D01*
X43798345Y13638339D01*
X43794114Y13639581D01*
X43782328Y13643977D01*
X43769974Y13646666D01*
X43765734Y13647910D01*
X43757845Y13650226D01*
X43615438Y13670700D01*
X42823100Y13670700D01*
X42819446Y13670308D01*
X42750690Y13682718D01*
X42699556Y13730333D01*
X42684942Y13767681D01*
X42674452Y13816759D01*
X42674451Y13816760D01*
X42674451Y13816763D01*
X42615314Y13947928D01*
X42615314Y13947929D01*
X42615312Y13947932D01*
X42577829Y14006881D01*
X42577824Y14006888D01*
X42484127Y14116082D01*
X42381956Y14205482D01*
X42344466Y14264442D01*
X42344804Y14334310D01*
X42382862Y14392905D01*
X42446557Y14421623D01*
X42463611Y14422801D01*
X44581600Y14422801D01*
X44581600Y16947800D01*
X45081600Y16947800D01*
X45081600Y14422801D01*
X46651491Y14422801D01*
X46718530Y14403116D01*
X46764285Y14350313D01*
X46774229Y14281154D01*
X46745204Y14217598D01*
X46739172Y14211120D01*
X46026324Y13498272D01*
X45984065Y13435027D01*
X45984066Y13435026D01*
X45955134Y13391726D01*
X45906098Y13273343D01*
X45906098Y13273342D01*
X45900872Y13247070D01*
X45886010Y13218660D01*
X45872549Y13189581D01*
X45869409Y13186925D01*
X45868486Y13185160D01*
X45845758Y13166605D01*
X45845058Y13166161D01*
X45762944Y13115512D01*
X45758749Y13111318D01*
X45747696Y13104294D01*
X45720009Y13096320D01*
X45693293Y13085545D01*
X45686854Y13086770D01*
X45680556Y13084955D01*
X45652952Y13093215D01*
X45624653Y13098594D01*
X45615665Y13104371D01*
X45613618Y13104983D01*
X45612274Y13106550D01*
X45604283Y13111686D01*
X45599946Y13115116D01*
X45450724Y13207157D01*
X45450719Y13207159D01*
X45284297Y13262306D01*
X45284290Y13262307D01*
X45181586Y13272800D01*
X45081600Y13272800D01*
X45081600Y7672801D01*
X45181572Y7672801D01*
X45181586Y7672802D01*
X45284297Y7683295D01*
X45450719Y7738442D01*
X45450724Y7738444D01*
X45599946Y7830486D01*
X45604283Y7833914D01*
X45669079Y7860055D01*
X45737721Y7847014D01*
X45758103Y7833916D01*
X45762942Y7830090D01*
X45762944Y7830088D01*
X45912266Y7737986D01*
X46078803Y7682801D01*
X46181591Y7672300D01*
X46881608Y7672301D01*
X46881616Y7672302D01*
X46881619Y7672302D01*
X46937902Y7678052D01*
X46984397Y7682801D01*
X47150934Y7737986D01*
X47300256Y7830088D01*
X47300261Y7830094D01*
X47305097Y7833916D01*
X47369893Y7860055D01*
X47438535Y7847013D01*
X47458917Y7833914D01*
X47463253Y7830486D01*
X47612475Y7738444D01*
X47612480Y7738442D01*
X47778902Y7683295D01*
X47778909Y7683294D01*
X47881619Y7672801D01*
X48481600Y7672801D01*
X48581572Y7672801D01*
X48581586Y7672802D01*
X48684297Y7683295D01*
X48850719Y7738442D01*
X48850724Y7738444D01*
X48999945Y7830485D01*
X49123915Y7954455D01*
X49215959Y8103681D01*
X49271105Y8270103D01*
X49271106Y8270110D01*
X49281599Y8372814D01*
X49281600Y8372827D01*
X49281600Y10222800D01*
X48481600Y10222800D01*
X48481600Y7672801D01*
X47881619Y7672801D01*
X47981600Y7672802D01*
X47981600Y10348800D01*
X48001285Y10415839D01*
X48054089Y10461594D01*
X48105600Y10472800D01*
X48231600Y10472800D01*
X48231600Y10598800D01*
X48251285Y10665839D01*
X48304089Y10711594D01*
X48355600Y10722800D01*
X49281599Y10722800D01*
X49281599Y12572772D01*
X49281598Y12572787D01*
X49271105Y12675498D01*
X49215958Y12841920D01*
X49215956Y12841925D01*
X49189755Y12884403D01*
X49171315Y12951796D01*
X49192238Y13018459D01*
X49245880Y13063229D01*
X49295294Y13073500D01*
X51223871Y13073500D01*
X51322980Y13093215D01*
X51349544Y13098499D01*
X51467927Y13147535D01*
X51468128Y13147669D01*
X51468187Y13147708D01*
X51557162Y13207159D01*
X51574469Y13218723D01*
X52808077Y14452331D01*
X52879265Y14558873D01*
X52928301Y14677256D01*
X52932296Y14697338D01*
X52944049Y14756423D01*
X52953300Y14802929D01*
X52953300Y23105992D01*
X52972985Y23173031D01*
X52989619Y23193673D01*
X54133127Y24337181D01*
X54194450Y24370666D01*
X54220808Y24373500D01*
X57055501Y24373500D01*
X57122540Y24353815D01*
X57168295Y24301011D01*
X57179501Y24249500D01*
X57179501Y23526124D01*
X57185908Y23466517D01*
X57236202Y23331672D01*
X57236206Y23331665D01*
X57322452Y23216456D01*
X57322455Y23216453D01*
X57437664Y23130207D01*
X57437671Y23130203D01*
X57572517Y23079909D01*
X57572516Y23079909D01*
X57579444Y23079165D01*
X57632127Y23073500D01*
X63127872Y23073501D01*
X63187483Y23079909D01*
X63322331Y23130204D01*
X63437546Y23216454D01*
X63523796Y23331669D01*
X63574091Y23466517D01*
X63574091Y23466519D01*
X63575874Y23474062D01*
X63578228Y23473506D01*
X63600382Y23527010D01*
X63657768Y23566867D01*
X63727593Y23569372D01*
X63784626Y23536900D01*
X66459181Y20862345D01*
X66492666Y20801022D01*
X66495500Y20774664D01*
X66495500Y17435578D01*
X66526290Y17241174D01*
X66587117Y17053970D01*
X66646647Y16937138D01*
X66676476Y16878595D01*
X66792172Y16719354D01*
X69214172Y14297354D01*
X69353354Y14158172D01*
X69512595Y14042476D01*
X69687975Y13953116D01*
X69809149Y13913744D01*
X69875173Y13892291D01*
X69930718Y13883494D01*
X70069578Y13861500D01*
X70069583Y13861500D01*
X70266416Y13861500D01*
X72475501Y13861500D01*
X72542540Y13841815D01*
X72588295Y13789011D01*
X72599501Y13737500D01*
X72599501Y13111982D01*
X72610000Y13009204D01*
X72610001Y13009201D01*
X72645333Y12902578D01*
X72665186Y12842666D01*
X72757288Y12693344D01*
X72881344Y12569288D01*
X73030666Y12477186D01*
X73197203Y12422001D01*
X73299991Y12411500D01*
X73625500Y12411501D01*
X73634186Y12408951D01*
X73643147Y12410239D01*
X73667183Y12399262D01*
X73692539Y12391817D01*
X73698467Y12384975D01*
X73706703Y12381214D01*
X73720989Y12358983D01*
X73738294Y12339013D01*
X73740581Y12328498D01*
X73744477Y12322436D01*
X73749500Y12287501D01*
X73749500Y12173301D01*
X73729815Y12106262D01*
X73677011Y12060507D01*
X73664507Y12055597D01*
X73631962Y12044812D01*
X73580668Y12027815D01*
X73580663Y12027813D01*
X73431342Y11935711D01*
X73307289Y11811658D01*
X73215187Y11662337D01*
X73215186Y11662334D01*
X73160001Y11495797D01*
X73160001Y11495796D01*
X73160000Y11495796D01*
X73149500Y11393017D01*
X73149500Y10767999D01*
X73149501Y10767981D01*
X73160000Y10665204D01*
X73160001Y10665201D01*
X73215185Y10498669D01*
X73215187Y10498664D01*
X73307289Y10349343D01*
X73400951Y10255681D01*
X73434436Y10194358D01*
X73429452Y10124666D01*
X73400951Y10080319D01*
X73307289Y9986658D01*
X73215187Y9837337D01*
X73215185Y9837332D01*
X73206364Y9810712D01*
X73160001Y9670797D01*
X73160001Y9670796D01*
X73160000Y9670796D01*
X73149500Y9568017D01*
X73149500Y8942999D01*
X73149501Y8942981D01*
X73160000Y8840204D01*
X73160001Y8840201D01*
X73215185Y8673669D01*
X73215186Y8673666D01*
X73307288Y8524344D01*
X73431344Y8400288D01*
X73580666Y8308186D01*
X73664505Y8280405D01*
X73684535Y8266537D01*
X73706703Y8256413D01*
X73712751Y8247002D01*
X73721948Y8240634D01*
X73731302Y8218136D01*
X73744477Y8197635D01*
X73746935Y8180535D01*
X73748772Y8176118D01*
X73749500Y8162700D01*
X73749500Y8094206D01*
X73729815Y8027167D01*
X73677011Y7981412D01*
X73664505Y7976500D01*
X73627872Y7964361D01*
X73627871Y7964361D01*
X73479800Y7873029D01*
X73479796Y7873026D01*
X73356774Y7750004D01*
X73356771Y7750000D01*
X73265442Y7601934D01*
X73265437Y7601923D01*
X73210713Y7436777D01*
X73200300Y7334856D01*
X73200300Y6748145D01*
X73210713Y6646224D01*
X73265437Y6481078D01*
X73265442Y6481067D01*
X73356771Y6333001D01*
X73356774Y6332997D01*
X73479799Y6209972D01*
X73480983Y6209242D01*
X73481623Y6208530D01*
X73485464Y6205493D01*
X73484945Y6204837D01*
X73527706Y6157292D01*
X73538925Y6088329D01*
X73511079Y6024248D01*
X73485677Y6002238D01*
X73485777Y6002112D01*
X73482977Y5999899D01*
X73480984Y5998171D01*
X73480115Y5997636D01*
X73480109Y5997631D01*
X73357170Y5874692D01*
X73265896Y5726715D01*
X73265894Y5726710D01*
X73211207Y5561674D01*
X73200800Y5459816D01*
X73200800Y5416500D01*
X75600800Y5416500D01*
X75600800Y5459803D01*
X75600799Y5459816D01*
X75590392Y5561674D01*
X75535705Y5726710D01*
X75535703Y5726715D01*
X75444429Y5874692D01*
X75321490Y5997631D01*
X75321485Y5997635D01*
X75320622Y5998167D01*
X75320153Y5998688D01*
X75315823Y6002112D01*
X75316408Y6002852D01*
X75273896Y6050114D01*
X75262673Y6119076D01*
X75290516Y6183159D01*
X75316198Y6205414D01*
X75316136Y6205493D01*
X75317906Y6206893D01*
X75320620Y6209245D01*
X75321803Y6209974D01*
X75444826Y6332997D01*
X75536162Y6481075D01*
X75590887Y6646225D01*
X75601300Y6748152D01*
X75601300Y7334848D01*
X75590887Y7436775D01*
X75536162Y7601925D01*
X75536158Y7601931D01*
X75536157Y7601934D01*
X75444828Y7750000D01*
X75444825Y7750004D01*
X75321803Y7873026D01*
X75321799Y7873029D01*
X75173733Y7964358D01*
X75173727Y7964361D01*
X75173725Y7964362D01*
X75035495Y8010167D01*
X75015461Y8024037D01*
X74993297Y8034159D01*
X74987249Y8043570D01*
X74978051Y8049938D01*
X74968695Y8072440D01*
X74955523Y8092937D01*
X74953064Y8110038D01*
X74951228Y8114454D01*
X74950500Y8127872D01*
X74950500Y8162700D01*
X74970185Y8229739D01*
X75022989Y8275494D01*
X75035482Y8280401D01*
X75119334Y8308186D01*
X75268656Y8400288D01*
X75392712Y8524344D01*
X75484814Y8673666D01*
X75539999Y8840203D01*
X75550500Y8942991D01*
X75550499Y9568008D01*
X75542779Y9643578D01*
X75539999Y9670797D01*
X75539998Y9670800D01*
X75529439Y9702664D01*
X75484814Y9837334D01*
X75392712Y9986656D01*
X75299049Y10080319D01*
X75265564Y10141642D01*
X75270548Y10211334D01*
X75299049Y10255681D01*
X75301714Y10258346D01*
X75392712Y10349344D01*
X75484814Y10498666D01*
X75539999Y10665203D01*
X75550500Y10767991D01*
X75550499Y11393008D01*
X75539999Y11495797D01*
X75484814Y11662334D01*
X75392712Y11811656D01*
X75268656Y11935712D01*
X75119334Y12027814D01*
X75035495Y12055596D01*
X75015463Y12069466D01*
X74993297Y12079588D01*
X74987248Y12089001D01*
X74978051Y12095368D01*
X74968697Y12117867D01*
X74955523Y12138366D01*
X74953064Y12155468D01*
X74951228Y12159884D01*
X74950500Y12173301D01*
X74950500Y12287501D01*
X74970185Y12354540D01*
X75022989Y12400295D01*
X75074500Y12411501D01*
X75400002Y12411501D01*
X75400008Y12411501D01*
X75502797Y12422001D01*
X75669334Y12477186D01*
X75818656Y12569288D01*
X75942712Y12693344D01*
X76034814Y12842666D01*
X76089999Y13009203D01*
X76100500Y13111991D01*
X76100500Y13737500D01*
X76120185Y13804539D01*
X76172989Y13850294D01*
X76224500Y13861500D01*
X85890701Y13861500D01*
X85957740Y13841815D01*
X86003495Y13789011D01*
X86014701Y13737500D01*
X86014701Y13700124D01*
X86021108Y13640517D01*
X86071402Y13505672D01*
X86071406Y13505665D01*
X86157652Y13390456D01*
X86157655Y13390453D01*
X86272864Y13304207D01*
X86272871Y13304203D01*
X86407717Y13253909D01*
X86407716Y13253909D01*
X86414644Y13253165D01*
X86467327Y13247500D01*
X89563072Y13247501D01*
X89622683Y13253909D01*
X89757531Y13304204D01*
X89872746Y13390454D01*
X89958996Y13505669D01*
X90009291Y13640517D01*
X90015700Y13700127D01*
X90015699Y16795872D01*
X90009291Y16855483D01*
X90006467Y16863054D01*
X89958997Y16990329D01*
X89958993Y16990336D01*
X89872747Y17105545D01*
X89872744Y17105548D01*
X89757535Y17191794D01*
X89757528Y17191798D01*
X89622682Y17242092D01*
X89622683Y17242092D01*
X89563083Y17248499D01*
X89563081Y17248500D01*
X89563073Y17248500D01*
X89563064Y17248500D01*
X86467329Y17248500D01*
X86467323Y17248499D01*
X86407716Y17242092D01*
X86272871Y17191798D01*
X86272864Y17191794D01*
X86157655Y17105548D01*
X86157652Y17105545D01*
X86071406Y16990336D01*
X86071402Y16990329D01*
X86021108Y16855483D01*
X86014701Y16795884D01*
X86014701Y16795877D01*
X86014700Y16795865D01*
X86014700Y16486500D01*
X85995015Y16419461D01*
X85942211Y16373706D01*
X85890700Y16362500D01*
X76224499Y16362500D01*
X76157460Y16382185D01*
X76111705Y16434989D01*
X76100499Y16486500D01*
X76100499Y17112002D01*
X76100498Y17112019D01*
X76089999Y17214797D01*
X76089998Y17214800D01*
X76082530Y17237338D01*
X76034814Y17381334D01*
X75942712Y17530656D01*
X75818656Y17654712D01*
X75669334Y17746814D01*
X75502797Y17801999D01*
X75502795Y17802000D01*
X75400010Y17812500D01*
X73299998Y17812500D01*
X73299981Y17812499D01*
X73197203Y17802000D01*
X73197200Y17801999D01*
X73030668Y17746815D01*
X73030663Y17746813D01*
X72881342Y17654711D01*
X72757289Y17530658D01*
X72665187Y17381337D01*
X72665186Y17381334D01*
X72610001Y17214797D01*
X72610001Y17214796D01*
X72610000Y17214796D01*
X72599500Y17112017D01*
X72599500Y16486500D01*
X72579815Y16419461D01*
X72527011Y16373706D01*
X72475500Y16362500D01*
X70737336Y16362500D01*
X70670297Y16382185D01*
X70649655Y16398819D01*
X69032819Y18015655D01*
X68999334Y18076978D01*
X68996500Y18103336D01*
X68996500Y20459095D01*
X86015200Y20459095D01*
X86015200Y20196906D01*
X86049420Y19936991D01*
X86049422Y19936980D01*
X86117275Y19683745D01*
X86217604Y19441529D01*
X86217609Y19441518D01*
X86348688Y19214484D01*
X86348694Y19214476D01*
X86435280Y19101635D01*
X87329967Y19996323D01*
X87341697Y19968005D01*
X87424870Y19843528D01*
X87530728Y19737670D01*
X87655205Y19654497D01*
X87683520Y19642769D01*
X86788833Y18748083D01*
X86788833Y18748082D01*
X86901675Y18661495D01*
X86901683Y18661489D01*
X87128717Y18530410D01*
X87128728Y18530405D01*
X87370944Y18430076D01*
X87624179Y18362223D01*
X87624190Y18362221D01*
X87884105Y18328001D01*
X87884120Y18328000D01*
X88146280Y18328000D01*
X88146294Y18328001D01*
X88406209Y18362221D01*
X88406220Y18362223D01*
X88659455Y18430076D01*
X88901671Y18530405D01*
X88901682Y18530410D01*
X89128716Y18661489D01*
X89128734Y18661501D01*
X89241565Y18748081D01*
X89241565Y18748083D01*
X88346879Y19642769D01*
X88375195Y19654497D01*
X88499672Y19737670D01*
X88605530Y19843528D01*
X88688703Y19968005D01*
X88700431Y19996321D01*
X89595117Y19101635D01*
X89595119Y19101635D01*
X89681699Y19214466D01*
X89681711Y19214484D01*
X89812790Y19441518D01*
X89812795Y19441529D01*
X89913124Y19683745D01*
X89980977Y19936980D01*
X89980979Y19936991D01*
X90015199Y20196906D01*
X90015200Y20196920D01*
X90015200Y20459081D01*
X90015199Y20459095D01*
X89980979Y20719010D01*
X89980977Y20719021D01*
X89913124Y20972256D01*
X89812795Y21214472D01*
X89812790Y21214483D01*
X89681711Y21441517D01*
X89681705Y21441525D01*
X89595118Y21554367D01*
X89595117Y21554367D01*
X88700431Y20659680D01*
X88688703Y20687995D01*
X88605530Y20812472D01*
X88499672Y20918330D01*
X88375195Y21001503D01*
X88346877Y21013233D01*
X89241565Y21907920D01*
X89128724Y21994506D01*
X89128716Y21994512D01*
X88901682Y22125591D01*
X88901671Y22125596D01*
X88659455Y22225925D01*
X88406220Y22293778D01*
X88406209Y22293780D01*
X88146294Y22328000D01*
X87884105Y22328000D01*
X87624190Y22293780D01*
X87624179Y22293778D01*
X87370944Y22225925D01*
X87128728Y22125596D01*
X87128717Y22125591D01*
X86901671Y21994504D01*
X86788833Y21907921D01*
X86788833Y21907920D01*
X87683521Y21013232D01*
X87655205Y21001503D01*
X87530728Y20918330D01*
X87424870Y20812472D01*
X87341697Y20687995D01*
X87329968Y20659679D01*
X86435280Y21554367D01*
X86435279Y21554367D01*
X86348696Y21441529D01*
X86217609Y21214483D01*
X86217604Y21214472D01*
X86117275Y20972256D01*
X86049422Y20719021D01*
X86049420Y20719010D01*
X86015200Y20459095D01*
X68996500Y20459095D01*
X68996500Y21442423D01*
X68985477Y21512014D01*
X72600001Y21512014D01*
X72610494Y21409303D01*
X72665641Y21242881D01*
X72665643Y21242876D01*
X72757684Y21093655D01*
X72881654Y20969685D01*
X73030875Y20877644D01*
X73030880Y20877642D01*
X73197302Y20822495D01*
X73197309Y20822494D01*
X73300019Y20812001D01*
X74099999Y20812001D01*
X74600000Y20812001D01*
X75399972Y20812001D01*
X75399986Y20812002D01*
X75502697Y20822495D01*
X75669119Y20877642D01*
X75669124Y20877644D01*
X75818345Y20969685D01*
X75942315Y21093655D01*
X76034356Y21242876D01*
X76034358Y21242881D01*
X76089505Y21409303D01*
X76089506Y21409310D01*
X76099999Y21512014D01*
X76100000Y21512027D01*
X76100000Y23262000D01*
X74600000Y23262000D01*
X74600000Y20812001D01*
X74099999Y20812001D01*
X74100000Y20812002D01*
X74100000Y23262000D01*
X72600001Y23262000D01*
X72600001Y21512014D01*
X68985477Y21512014D01*
X68978586Y21555517D01*
X68965709Y21636826D01*
X68965708Y21636830D01*
X68965708Y21636831D01*
X68906391Y21819388D01*
X68905329Y21823153D01*
X68815523Y21999406D01*
X68699828Y22158646D01*
X65346487Y25511987D01*
X72600000Y25511987D01*
X72600000Y23762000D01*
X74100000Y23762000D01*
X74600000Y23762000D01*
X76099999Y23762000D01*
X76099999Y25511972D01*
X76099998Y25511987D01*
X76089505Y25614698D01*
X76034358Y25781120D01*
X76034356Y25781125D01*
X75942315Y25930346D01*
X75818345Y26054316D01*
X75669124Y26146357D01*
X75669119Y26146359D01*
X75502697Y26201506D01*
X75502690Y26201507D01*
X75399986Y26212000D01*
X74600000Y26212000D01*
X74600000Y23762000D01*
X74100000Y23762000D01*
X74100000Y26212000D01*
X73300028Y26212000D01*
X73300012Y26211999D01*
X73197302Y26201506D01*
X73030880Y26146359D01*
X73030875Y26146357D01*
X72881654Y26054316D01*
X72757684Y25930346D01*
X72665643Y25781125D01*
X72665641Y25781120D01*
X72610494Y25614698D01*
X72610493Y25614691D01*
X72600000Y25511987D01*
X65346487Y25511987D01*
X64880646Y25977828D01*
X64721405Y26093524D01*
X64546030Y26182883D01*
X64358826Y26243710D01*
X64164422Y26274500D01*
X64164417Y26274500D01*
X63704499Y26274500D01*
X63637460Y26294185D01*
X63591705Y26346989D01*
X63580499Y26398500D01*
X63580499Y26521871D01*
X63580498Y26521877D01*
X63580497Y26521884D01*
X63574091Y26581483D01*
X63523796Y26716331D01*
X63523795Y26716332D01*
X63523793Y26716336D01*
X63437547Y26831545D01*
X63437544Y26831548D01*
X63322335Y26917794D01*
X63322328Y26917798D01*
X63187482Y26968092D01*
X63187483Y26968092D01*
X63127883Y26974499D01*
X63127881Y26974500D01*
X63127873Y26974500D01*
X63127864Y26974500D01*
X57632129Y26974500D01*
X57632123Y26974499D01*
X57572516Y26968092D01*
X57437671Y26917798D01*
X57437664Y26917794D01*
X57322455Y26831548D01*
X57322452Y26831545D01*
X57236206Y26716336D01*
X57236202Y26716329D01*
X57185908Y26581483D01*
X57179501Y26521884D01*
X57179501Y26521877D01*
X57179500Y26521865D01*
X57179500Y25798500D01*
X57159815Y25731461D01*
X57107011Y25685706D01*
X57055500Y25674500D01*
X53835929Y25674500D01*
X53710261Y25649503D01*
X53710255Y25649501D01*
X53591874Y25600466D01*
X53485326Y25529274D01*
X51797526Y23841474D01*
X51726334Y23734926D01*
X51677299Y23616545D01*
X51677297Y23616539D01*
X51652300Y23490872D01*
X51652300Y15187808D01*
X51632615Y15120769D01*
X51615981Y15100127D01*
X50926673Y14410819D01*
X50865350Y14377334D01*
X50838992Y14374500D01*
X50543323Y14374500D01*
X50476284Y14394185D01*
X50430529Y14446989D01*
X50420585Y14516147D01*
X50449610Y14579703D01*
X50455642Y14586181D01*
X50573915Y14704455D01*
X50665956Y14853676D01*
X50665958Y14853681D01*
X50721105Y15020103D01*
X50721106Y15020110D01*
X50731599Y15122814D01*
X50731600Y15122827D01*
X50731600Y16947800D01*
X45081600Y16947800D01*
X44581600Y16947800D01*
X38931601Y16947800D01*
X38931601Y15122814D01*
X38942093Y15020105D01*
X38981726Y14900505D01*
X38984128Y14830676D01*
X38948397Y14770634D01*
X38885876Y14739441D01*
X38864020Y14737500D01*
X34732746Y14737500D01*
X34703305Y14746145D01*
X34673319Y14752668D01*
X34668303Y14756423D01*
X34665707Y14757185D01*
X34645065Y14773819D01*
X34505819Y14913065D01*
X34472334Y14974388D01*
X34469500Y15000746D01*
X34469500Y15958641D01*
X34466602Y16012689D01*
X34466602Y16012690D01*
X34463770Y16039023D01*
X34463767Y16039050D01*
X34455114Y16092446D01*
X34455114Y16092448D01*
X34404833Y16227253D01*
X34404832Y16227257D01*
X34371347Y16288580D01*
X34285123Y16403761D01*
X34285118Y16403766D01*
X34285113Y16403772D01*
X33595776Y17093108D01*
X33595761Y17093123D01*
X33595737Y17093145D01*
X33555519Y17129272D01*
X33555507Y17129282D01*
X33534856Y17145924D01*
X33490974Y17177567D01*
X33360100Y17237337D01*
X33293055Y17257024D01*
X33245582Y17263850D01*
X33150638Y17277500D01*
X33150636Y17277500D01*
X25334746Y17277500D01*
X25305305Y17286145D01*
X25275319Y17292668D01*
X25270303Y17296423D01*
X25267707Y17297185D01*
X25247065Y17313819D01*
X25113084Y17447800D01*
X38931600Y17447800D01*
X41806600Y17447800D01*
X42306600Y17447800D01*
X44581600Y17447800D01*
X45081600Y17447800D01*
X47356600Y17447800D01*
X47856600Y17447800D01*
X50731599Y17447800D01*
X50731599Y19372800D01*
X47856600Y19372800D01*
X47856600Y17447800D01*
X47356600Y17447800D01*
X47356600Y19372800D01*
X45081600Y19372800D01*
X45081600Y17447800D01*
X44581600Y17447800D01*
X44581600Y19372800D01*
X42306600Y19372800D01*
X42306600Y17447800D01*
X41806600Y17447800D01*
X41806600Y19372800D01*
X38931600Y19372800D01*
X38931600Y17447800D01*
X25113084Y17447800D01*
X25107819Y17453065D01*
X25074334Y17514388D01*
X25071500Y17540746D01*
X25071500Y19006641D01*
X25068602Y19060689D01*
X25068602Y19060690D01*
X25065770Y19087023D01*
X25065767Y19087050D01*
X25057114Y19140446D01*
X25057114Y19140448D01*
X25029506Y19214466D01*
X25006832Y19275257D01*
X24973347Y19336580D01*
X24887123Y19451761D01*
X24887118Y19451766D01*
X24887113Y19451772D01*
X24350870Y19988014D01*
X29674001Y19988014D01*
X29684494Y19885303D01*
X29739641Y19718881D01*
X29739643Y19718876D01*
X29831684Y19569655D01*
X29955654Y19445685D01*
X30104875Y19353644D01*
X30104880Y19353642D01*
X30271302Y19298495D01*
X30271309Y19298494D01*
X30374019Y19288001D01*
X31173999Y19288001D01*
X31674000Y19288001D01*
X32473972Y19288001D01*
X32473986Y19288002D01*
X32576697Y19298495D01*
X32743119Y19353642D01*
X32743124Y19353644D01*
X32892345Y19445685D01*
X32958504Y19511843D01*
X33016315Y19569655D01*
X33108356Y19718876D01*
X33108358Y19718881D01*
X33159362Y19872800D01*
X38931600Y19872800D01*
X41806600Y19872800D01*
X42306600Y19872800D01*
X44581600Y19872800D01*
X45081600Y19872800D01*
X47356600Y19872800D01*
X47856600Y19872800D01*
X50731599Y19872800D01*
X50731599Y19966687D01*
X50731600Y19966708D01*
X50731600Y21797800D01*
X47856600Y21797800D01*
X47856600Y19872800D01*
X47356600Y19872800D01*
X47356600Y21797800D01*
X45081600Y21797800D01*
X45081600Y19872800D01*
X44581600Y19872800D01*
X44581600Y21797800D01*
X42306600Y21797800D01*
X42306600Y19872800D01*
X41806600Y19872800D01*
X41806600Y21797800D01*
X38931600Y21797800D01*
X38931600Y19872800D01*
X33159362Y19872800D01*
X33163505Y19885303D01*
X33163506Y19885310D01*
X33173999Y19988014D01*
X33174000Y19988027D01*
X33174000Y21738000D01*
X31674000Y21738000D01*
X31674000Y19288001D01*
X31173999Y19288001D01*
X31174000Y19288002D01*
X31174000Y21738000D01*
X29674001Y21738000D01*
X29674001Y19988014D01*
X24350870Y19988014D01*
X24197776Y20141108D01*
X24197770Y20141114D01*
X24197761Y20141123D01*
X24197737Y20141145D01*
X24157519Y20177272D01*
X24157507Y20177282D01*
X24136856Y20193924D01*
X24092974Y20225567D01*
X23962100Y20285337D01*
X23895055Y20305024D01*
X23847582Y20311850D01*
X23752638Y20325500D01*
X20807362Y20325500D01*
X20807360Y20325500D01*
X20753311Y20322603D01*
X20753310Y20322603D01*
X20726977Y20319771D01*
X20726950Y20319768D01*
X20673554Y20311115D01*
X20673552Y20311115D01*
X20538747Y20260834D01*
X20477422Y20227349D01*
X20362240Y20141124D01*
X20362228Y20141114D01*
X19672892Y19451777D01*
X19672855Y19451738D01*
X19636728Y19411520D01*
X19636718Y19411508D01*
X19620076Y19390857D01*
X19588433Y19346975D01*
X19528663Y19216101D01*
X19508976Y19149056D01*
X19507738Y19140446D01*
X19488501Y19006641D01*
X19488500Y19006637D01*
X18213500Y19006637D01*
X18213500Y19260638D01*
X18210603Y19314678D01*
X18207769Y19341036D01*
X18199114Y19394448D01*
X18148832Y19529257D01*
X18115347Y19590580D01*
X18029123Y19705761D01*
X18029118Y19705766D01*
X18029113Y19705772D01*
X17339776Y20395108D01*
X17339770Y20395114D01*
X17339761Y20395123D01*
X17331156Y20402853D01*
X17299519Y20431272D01*
X17299507Y20431282D01*
X17278856Y20447924D01*
X17234974Y20479567D01*
X17104100Y20539337D01*
X17037055Y20559024D01*
X16989582Y20565850D01*
X16894638Y20579500D01*
X14203362Y20579500D01*
X14203360Y20579500D01*
X14149311Y20576603D01*
X14149310Y20576603D01*
X14122977Y20573771D01*
X14122950Y20573768D01*
X14069554Y20565115D01*
X14069552Y20565115D01*
X13934747Y20514834D01*
X13873422Y20481349D01*
X13758240Y20395124D01*
X13758228Y20395114D01*
X13068892Y19705777D01*
X13068855Y19705738D01*
X13032728Y19665520D01*
X13032718Y19665508D01*
X13016076Y19644857D01*
X12984433Y19600975D01*
X12924663Y19470101D01*
X12904976Y19403056D01*
X12903222Y19390857D01*
X12884501Y19260641D01*
X12884500Y19260637D01*
X12884500Y18417500D01*
X12864815Y18350461D01*
X12812011Y18304706D01*
X12760500Y18293500D01*
X10151524Y18293500D01*
X10084485Y18313185D01*
X10038730Y18365989D01*
X10028786Y18435147D01*
X10057811Y18498703D01*
X10113465Y18534470D01*
X10113308Y18534891D01*
X10115245Y18535614D01*
X10116589Y18536477D01*
X10119935Y18537363D01*
X10255286Y18587846D01*
X10255293Y18587850D01*
X10370387Y18674010D01*
X10370390Y18674013D01*
X10456550Y18789107D01*
X10456554Y18789114D01*
X10506796Y18923821D01*
X10506798Y18923828D01*
X10513199Y18983356D01*
X10513200Y18983373D01*
X10513200Y20281200D01*
X9232264Y20281200D01*
X9243993Y20309516D01*
X9273200Y20456347D01*
X9273200Y20606053D01*
X9243993Y20752884D01*
X9232264Y20781200D01*
X10513200Y20781200D01*
X10513200Y22079028D01*
X10513199Y22079045D01*
X10506798Y22138573D01*
X10506796Y22138580D01*
X10456554Y22273287D01*
X10456550Y22273294D01*
X10370390Y22388388D01*
X10370387Y22388391D01*
X10255293Y22474551D01*
X10255286Y22474555D01*
X10120579Y22524797D01*
X10120572Y22524799D01*
X10061044Y22531200D01*
X8763200Y22531200D01*
X8763200Y21250265D01*
X8734884Y21261993D01*
X8588053Y21291200D01*
X8438347Y21291200D01*
X8291516Y21261993D01*
X8263200Y21250265D01*
X8263200Y22531200D01*
X6965355Y22531200D01*
X6905827Y22524799D01*
X6905820Y22524797D01*
X6771113Y22474555D01*
X6771106Y22474551D01*
X6656012Y22388391D01*
X6656009Y22388388D01*
X6569849Y22273294D01*
X6569845Y22273287D01*
X6519603Y22138580D01*
X6519601Y22138573D01*
X6513200Y22079045D01*
X6513200Y20781200D01*
X7794136Y20781200D01*
X7782407Y20752884D01*
X7753200Y20606053D01*
X7753200Y20456347D01*
X7782407Y20309516D01*
X7794136Y20281200D01*
X6513200Y20281200D01*
X6513200Y18983356D01*
X6519601Y18923828D01*
X6519603Y18923821D01*
X6569845Y18789114D01*
X6569849Y18789107D01*
X6656009Y18674013D01*
X6656012Y18674010D01*
X6771106Y18587850D01*
X6771113Y18587846D01*
X6905820Y18537604D01*
X6905827Y18537602D01*
X6965355Y18531201D01*
X6965372Y18531200D01*
X6972786Y18531200D01*
X7039825Y18511515D01*
X7085580Y18458711D01*
X7095524Y18389553D01*
X7066499Y18325997D01*
X7007721Y18288223D01*
X6992620Y18284797D01*
X6957556Y18279116D01*
X6957552Y18279115D01*
X6822747Y18228834D01*
X6761422Y18195349D01*
X6646240Y18109124D01*
X6646228Y18109114D01*
X5702892Y17165777D01*
X5702855Y17165738D01*
X5666728Y17125520D01*
X5666718Y17125508D01*
X5650076Y17104857D01*
X5618433Y17060975D01*
X5558663Y16930101D01*
X5538976Y16863056D01*
X5518500Y16720637D01*
X428500Y16720637D01*
X428500Y23987987D01*
X29674000Y23987987D01*
X29674000Y22238000D01*
X31174000Y22238000D01*
X31674000Y22238000D01*
X33173999Y22238000D01*
X33173999Y23987972D01*
X33173998Y23987987D01*
X33163505Y24090697D01*
X33153858Y24119809D01*
X38931600Y24119809D01*
X38931600Y22297800D01*
X41806600Y22297800D01*
X42306600Y22297800D01*
X44581600Y22297800D01*
X45081600Y22297800D01*
X47356600Y22297800D01*
X47856600Y22297800D01*
X50731599Y22297800D01*
X50731599Y24122772D01*
X50731598Y24122787D01*
X50721105Y24225498D01*
X50665958Y24391920D01*
X50665956Y24391925D01*
X50573915Y24541146D01*
X50449945Y24665116D01*
X50300724Y24757157D01*
X50300719Y24757159D01*
X50134297Y24812306D01*
X50134290Y24812307D01*
X50031586Y24822800D01*
X47856600Y24822800D01*
X47856600Y22297800D01*
X47356600Y22297800D01*
X47356600Y24822800D01*
X45081600Y24822800D01*
X45081600Y22297800D01*
X44581600Y22297800D01*
X44581600Y24822800D01*
X42306600Y24822800D01*
X42306600Y22297800D01*
X41806600Y22297800D01*
X41806600Y24822800D01*
X39631628Y24822800D01*
X39631612Y24822799D01*
X39528902Y24812306D01*
X39362480Y24757159D01*
X39362475Y24757157D01*
X39213254Y24665116D01*
X39089284Y24541146D01*
X38997243Y24391925D01*
X38997241Y24391920D01*
X38942094Y24225499D01*
X38941623Y24222579D01*
X38941480Y24219774D01*
X38941489Y24219584D01*
X38931600Y24119809D01*
X33153858Y24119809D01*
X33108358Y24257120D01*
X33108356Y24257125D01*
X33016315Y24406346D01*
X32892345Y24530316D01*
X32743124Y24622357D01*
X32743119Y24622359D01*
X32576697Y24677506D01*
X32576690Y24677507D01*
X32473986Y24688000D01*
X31674000Y24688000D01*
X31674000Y22238000D01*
X31174000Y22238000D01*
X31174000Y24688000D01*
X30374028Y24688000D01*
X30374012Y24687999D01*
X30271302Y24677506D01*
X30104880Y24622359D01*
X30104875Y24622357D01*
X29955654Y24530316D01*
X29831684Y24406346D01*
X29739643Y24257125D01*
X29739641Y24257120D01*
X29684494Y24090698D01*
X29684493Y24090691D01*
X29674000Y23987987D01*
X428500Y23987987D01*
X428500Y28711243D01*
X428670Y28717732D01*
X445454Y29038010D01*
X446811Y29050918D01*
X496472Y29364479D01*
X499164Y29377147D01*
X581337Y29683825D01*
X585339Y29696141D01*
X699116Y29992543D01*
X704392Y30004390D01*
X718878Y30032820D01*
X848523Y30287266D01*
X854998Y30298482D01*
X1027919Y30564758D01*
X1035521Y30575221D01*
X1235334Y30821971D01*
X1244002Y30831597D01*
X1468496Y31056092D01*
X1478120Y31064758D01*
X1724860Y31264566D01*
X1735341Y31272180D01*
X2001613Y31445099D01*
X2012811Y31451565D01*
X2295717Y31595713D01*
X2307538Y31600976D01*
X2603948Y31714758D01*
X2616257Y31718757D01*
X2922949Y31800935D01*
X2935602Y31803624D01*
X3249172Y31853289D01*
X3262076Y31854645D01*
X3582086Y31871417D01*
X3588569Y31871586D01*
X92724494Y31867104D01*
G37*
%TD.AperFunction*%
%TD*%
%TA.AperFunction,Conductor*%
%TO.N,VDC*%
G36*
X16961677Y20054315D02*
G01*
X16982319Y20037681D01*
X17671681Y19348319D01*
X17705166Y19286996D01*
X17708000Y19260638D01*
X17708000Y13775362D01*
X17688315Y13708323D01*
X17671681Y13687681D01*
X16982319Y12998319D01*
X16920996Y12964834D01*
X16894638Y12962000D01*
X7081333Y12962000D01*
X7014294Y12981685D01*
X7006933Y12986800D01*
X6991574Y12998319D01*
X6073600Y13686800D01*
X6031779Y13742771D01*
X6024000Y13786000D01*
X6024000Y16720638D01*
X6043685Y16787677D01*
X6060319Y16808319D01*
X7003681Y17751681D01*
X7065004Y17785166D01*
X7091362Y17788000D01*
X13136000Y17788000D01*
X13390000Y18042000D01*
X13390000Y19260638D01*
X13409685Y19327677D01*
X13426319Y19348319D01*
X14115681Y20037681D01*
X14177004Y20071166D01*
X14203362Y20074000D01*
X16894638Y20074000D01*
X16961677Y20054315D01*
G37*
%TD.AperFunction*%
%TD*%
%TA.AperFunction,Conductor*%
%TO.N,/VIN*%
G36*
X23819677Y19800315D02*
G01*
X23840319Y19783681D01*
X24529681Y19094319D01*
X24563166Y19032996D01*
X24566000Y19006638D01*
X24566000Y17280000D01*
X25074000Y16772000D01*
X33150638Y16772000D01*
X33217677Y16752315D01*
X33238319Y16735681D01*
X33927681Y16046319D01*
X33961166Y15984996D01*
X33964000Y15958638D01*
X33964000Y14740000D01*
X34472000Y14232000D01*
X41537408Y14232000D01*
X41604447Y14212315D01*
X41619063Y14201320D01*
X42151255Y13735652D01*
X42188745Y13676692D01*
X42193600Y13642332D01*
X42193600Y12953199D01*
X42175140Y12888104D01*
X42146786Y12842134D01*
X42091601Y12675597D01*
X42091601Y12675596D01*
X42091600Y12675596D01*
X42081100Y12572817D01*
X42081100Y8372799D01*
X42081101Y8372782D01*
X42091600Y8270004D01*
X42091601Y8270001D01*
X42146786Y8103466D01*
X42146944Y8103128D01*
X42146982Y8102875D01*
X42149058Y8096611D01*
X42147987Y8096257D01*
X42150340Y8080766D01*
X42158245Y8059572D01*
X42155485Y8046887D01*
X42157435Y8034050D01*
X42148201Y8013402D01*
X42143394Y7991299D01*
X42130789Y7974461D01*
X42128914Y7970267D01*
X42122243Y7963044D01*
X42049081Y7889882D01*
X41975917Y7816718D01*
X41914597Y7783234D01*
X41888238Y7780400D01*
X40365362Y7780400D01*
X40298323Y7800085D01*
X40277681Y7816719D01*
X40096319Y7998081D01*
X40062834Y8059404D01*
X40060000Y8085762D01*
X40060000Y9660000D01*
X39552000Y10168000D01*
X29697362Y10168000D01*
X29630323Y10187685D01*
X29609681Y10204319D01*
X28920319Y10893681D01*
X28886834Y10955004D01*
X28884000Y10981362D01*
X28884000Y13978000D01*
X28122000Y14740000D01*
X20807362Y14740000D01*
X20740323Y14759685D01*
X20719681Y14776319D01*
X20030319Y15465681D01*
X19996834Y15527004D01*
X19994000Y15553362D01*
X19994000Y19006638D01*
X20013685Y19073677D01*
X20030319Y19094319D01*
X20719681Y19783681D01*
X20781004Y19817166D01*
X20807362Y19820000D01*
X23752638Y19820000D01*
X23819677Y19800315D01*
G37*
%TD.AperFunction*%
%TD*%
M02*
