M48
; DRILL file {KiCad 9.0.6} date 2026-05-04T21:52:42+0200
; FORMAT={-:-/ absolute / metric / decimal}
; #@! TF.CreationDate,2026-05-04T21:52:42+02:00
; #@! TF.GenerationSoftware,Kicad,Pcbnew,9.0.6
; #@! TF.FileFunction,Plated,1,2,PTH
FMAT,2
METRIC
; #@! TA.AperFunction,Plated,PTH,ViaDrill
T1C0.350
; #@! TA.AperFunction,Plated,PTH,ComponentDrill
T2C1.520
%
G90
G05
T1
X2.6Y26.1
X4.6Y29.6
X5.0Y6.1
X6.6Y26.1
X7.0Y2.6
X8.6Y29.6
X9.0Y6.1
X10.6Y26.1
X11.0Y2.6
X12.6Y29.6
X13.0Y6.1
X14.6Y26.1
X15.0Y2.6
X16.6Y29.6
X17.0Y6.1
X18.6Y26.1
X19.0Y2.6
X20.6Y29.6
X21.0Y6.1
X22.6Y26.1
X23.0Y2.6
X24.6Y29.6
X25.0Y6.1
X26.6Y26.1
X27.0Y2.6
X28.6Y29.6
X29.0Y6.1
X30.6Y26.1
X31.0Y2.6
X32.6Y29.6
X33.0Y6.1
X34.6Y26.1
X35.0Y2.6
X36.6Y29.6
X37.0Y6.1
X38.6Y26.1
X39.1Y2.6
X40.6Y29.6
X42.6Y26.1
X44.6Y29.6
X46.6Y26.1
X48.6Y29.6
X50.6Y26.1
X51.6Y8.1
X52.6Y29.6
X53.1Y11.6
X56.6Y29.6
X60.6Y29.6
X61.6Y2.6
X64.6Y29.6
X65.6Y2.6
X68.6Y29.6
X69.6Y2.6
X70.6Y26.6
X72.6Y29.6
X73.6Y2.6
X74.6Y26.6
X76.6Y29.6
X77.6Y2.6
X78.6Y26.6
X79.6Y6.1
X80.6Y29.6
X81.6Y9.1
X81.6Y2.6
X82.6Y26.6
X83.6Y6.1
X84.6Y29.6
X85.6Y9.1
X85.6Y2.6
X86.6Y26.6
X87.6Y6.1
X88.6Y29.6
X89.6Y9.1
X89.6Y2.6
X90.6Y26.6
X91.6Y6.1
X92.6Y29.6
T2
X8.513Y20.531
X8.513Y15.451
X88.015Y20.328
X88.015Y15.248
M30
